<svg xmlns="http://www.w3.org/2000/svg" xmlns:xlink="http://www.w3.org/1999/xlink">
    <defs>
        <symbol
            id="ag"
            viewBox="0 0 24.02 28.99">
            <clipPath id="a" transform="translate(0 -0.01)">
                <rect width="24.03" height="29" fill="none" />
            </clipPath>
            <g clip-path="url(#a)">
                <path d="M12,28.48V.4H.41V18C.41,24,5.6,28.62,12,28.62Z"
                    transform="translate(0 -0.01)" fill="#171714" />
                <path
                    d="M.51,16.81a1.5,1.5,0,0,0,.71-.27,1.78,1.78,0,0,1,1-.28,1.78,1.78,0,0,1,1,.28,1.7,1.7,0,0,0,1,.29,1.7,1.7,0,0,0,1-.29,1.78,1.78,0,0,1,1-.28,1.78,1.78,0,0,1,1,.28,1.72,1.72,0,0,0,1,.29,1.7,1.7,0,0,0,1-.29,1.93,1.93,0,0,1,2,0,1.59,1.59,0,0,0,.62.25V10.72a1.59,1.59,0,0,1-.62-.25,1.7,1.7,0,0,0-1-.29,1.72,1.72,0,0,0-1,.29,1.93,1.93,0,0,1-2,0,1.7,1.7,0,0,0-1-.29,1.72,1.72,0,0,0-1,.29,1.78,1.78,0,0,1-1,.28,1.78,1.78,0,0,1-1-.28,1.79,1.79,0,0,0-1-.29,1.7,1.7,0,0,0-1,.29,1.53,1.53,0,0,1-.71.26Z"
                    transform="translate(0 -0.01)" fill="#fff" />
                <path
                    d="M11.85,14.9a1.31,1.31,0,0,1-.62-.26,1.75,1.75,0,0,0-1-.29,1.77,1.77,0,0,0-1,.29,1.62,1.62,0,0,1-1,.3,1.62,1.62,0,0,1-1-.3,1.75,1.75,0,0,0-1-.29,1.75,1.75,0,0,0-1,.29,1.62,1.62,0,0,1-1,.3,1.62,1.62,0,0,1-1-.3,1.85,1.85,0,0,0-1-.29,1.75,1.75,0,0,0-1,.29,1.41,1.41,0,0,1-.71.27m11.33-2.09a1.31,1.31,0,0,1-.62-.26,1.87,1.87,0,0,0-2,0,1.62,1.62,0,0,1-1,.3,1.62,1.62,0,0,1-1-.3,1.87,1.87,0,0,0-2,0,1.62,1.62,0,0,1-1,.3,1.62,1.62,0,0,1-1-.3,1.88,1.88,0,0,0-1-.29,1.85,1.85,0,0,0-1,.29,1.41,1.41,0,0,1-.71.27M.52,17a1.42,1.42,0,0,0,.71-.28,1.85,1.85,0,0,1,1-.29,1.88,1.88,0,0,1,1,.29,1.62,1.62,0,0,0,1,.3,1.62,1.62,0,0,0,1-.3,1.88,1.88,0,0,1,1-.29,1.85,1.85,0,0,1,1,.29,1.62,1.62,0,0,0,1,.3,1.62,1.62,0,0,0,1-.3,1.88,1.88,0,0,1,1-.29,1.85,1.85,0,0,1,1,.29,1.31,1.31,0,0,0,.62.26m0-6.24a1.31,1.31,0,0,1-.62-.26,1.85,1.85,0,0,0-1-.29,1.88,1.88,0,0,0-1,.29,1.62,1.62,0,0,1-1,.3,1.62,1.62,0,0,1-1-.3,1.85,1.85,0,0,0-1-.29,1.88,1.88,0,0,0-1,.29,1.62,1.62,0,0,1-1,.3,1.62,1.62,0,0,1-1-.3,1.88,1.88,0,0,0-1-.29,1.85,1.85,0,0,0-1,.29,1.41,1.41,0,0,1-.71.27"
                    transform="translate(0 -0.01)" fill="none" stroke="#171714"
                    stroke-miterlimit="11.47" stroke-width="0.22" />
                <path d="M12,28.62c6.4,0,11.59-4.9,11.59-10.94V.45H12Z"
                    transform="translate(0 -0.01)" fill="#2673bd" />
            </g>
            <path
                d="M20.47,8.35l.67,1.8h1.78l-1.41,1,.54,1.73-1.58-1-1.57,1,.54-1.72-1.41-1H19.8ZM15,8.35l.67,1.8h1.78l-1.41,1,.54,1.73-1.58-1-1.57,1L14,11.11l-1.41-1h1.78Zm2.75,4.8.66,1.8h1.78l-1.41,1,.54,1.73-1.57-1-1.58,1,.55-1.73-1.41-1h1.77Z"
                transform="translate(0 -0.01)" fill="#fff" />

            <path
                d="M.23,17.67V.23H23.8V17.67c0,7.38-6.71,11.1-11.8,11.1C6.52,28.77.22,25.06.23,17.67Z"
                transform="translate(0 -0.01)" fill="none" stroke="#171714" stroke-miterlimit="3.86"
                stroke-width="0.45" />
        </symbol>
        <symbol
            id="ai"
            viewBox="0 0 24.03 29"
            preserveAspectRatio="xMinYMid"
        >
            <clipPath id="clip-path">
                <rect class="cls-1" fill="none" width="24.03" height="29" />
            </clipPath>
            <g>
                <g>
                    <g clip-path="url(#clip-path)">
                        <path fill="#fff"
                            d="M5.82,23.55a22.19,22.19,0,0,1,3.08.15.62.62,0,0,1,.32.83l0,0a.63.63,0,0,0-.45-.75,18.83,18.83,0,0,0-3-.19.53.53,0,0,1-.35-.5.73.73,0,0,0,.47.44" />
                        <path class="cls-4" fill="none" stroke="#fff" stroke-width="0.02px"
                            stroke-miterlimit="11.47"
                            d="M5.82,23.55a22.19,22.19,0,0,1,3.08.15.62.62,0,0,1,.32.83l0,0a.63.63,0,0,0-.45-.75,18.83,18.83,0,0,0-3-.19.53.53,0,0,1-.35-.5A.73.73,0,0,0,5.82,23.55Z" />
                    </g>
                    <path fill="#faf214" d="M4.75,25.93l-.25-.21Z" />
                    <g clip-path="url(#clip-path)">
                        <path fill="#171714" d="M2,13.1a.84.84,0,1,1,.84.84A.83.83,0,0,1,2,13.1" />
                        <path fill="#171714" d="M2.87,13.8a.69.69,0,1,0-.67-.7.67.67,0,0,0,.67.7" />
                        <path fill="#171714"
                            d="M3.31,13.26a.41.41,0,0,1-.41.35.48.48,0,0,1-.49-.51.47.47,0,0,1,.48-.5.39.39,0,0,1,.41.35H3.16a.26.26,0,0,0-.27-.2.32.32,0,0,0-.32.35.34.34,0,0,0,.33.37.25.25,0,0,0,.26-.21Z" />
                        <path fill="#fff"
                            d="M23.6.43.42.44v17.2c0,6,5.2,10.94,11.59,10.94S23.6,23.69,23.6,17.65Z" />
                        <path fill="#c21a24"
                            d="M3.33,9.35a1.9,1.9,0,0,1,.28-.17c-.2-.17-.83-.76-1.26-.62.16.19.78.73.73,1a3,3,0,0,1,.25-.25" />
                        <path fill="#c21a24"
                            d="M2.95,9.81a1.29,1.29,0,0,1,.21-.24c-.23-.09-1-.42-1.32-.17.2.14.88.31,1,.72a2.13,2.13,0,0,1,.15-.31" />
                        <path fill="#c21a24"
                            d="M2.74,10.36a1.34,1.34,0,0,1,.1-.3c-.25,0-.76-.08-1,.26.26.06.7.1.88.37a2.39,2.39,0,0,1,0-.33" />
                        <path fill="#c21a24"
                            d="M3.91,9.11a1.8,1.8,0,0,1,.34,0c-.07-.25-.41-1-.84-1.14,0,.25.37,1,.15,1.22l.35-.09" />
                        <path fill="#c21a24" d="M2.7,10.69s-.8.25-.8.68a2.39,2.39,0,0,1,.92-.2Z" />
                        <path fill="#c21a24"
                            d="M5,22.9a1.46,1.46,0,0,1,.15-.28c-.28-.05-.92-.19-1.2.11.24.1.85.21,1,.49A2.61,2.61,0,0,1,5,22.9" />
                        <path fill="#171714"
                            d="M17,2.41a.76.76,0,0,1-.14.71c-.67.15-.57-.81-1.24-1A.88.88,0,0,1,17,2.41" />
                        <path fill="#c21a24"
                            d="M4.48,2.85a1.51,1.51,0,0,1,.33,0c-.1-.23-.54-1-1-1C4,2,4.33,2.72,4.14,3a2.77,2.77,0,0,1,.34-.12" />
                        <path fill="#c21a24"
                            d="M4.12,3.13A1.94,1.94,0,0,1,4.41,3c-.18-.16-.71-.69-1.14-.59.25.14.68.57.59,1a2.85,2.85,0,0,1,.26-.23" />
                        <path fill="#c21a24"
                            d="M4.07,3.39a1.23,1.23,0,0,1,.2-.25C4,3.06,3.18,2.82,2.84,3.07c.27.06,1,.32,1.1.62a3.26,3.26,0,0,1,.14-.31" />
                        <path fill="#c21a24"
                            d="M4.94,2.71a1.59,1.59,0,0,1,.33.05c0-.26-.2-1.09-.59-1.26.07.25.16,1-.1,1.23a2.42,2.42,0,0,1,.36,0" />
                        <path fill="#c21a24"
                            d="M3.93,3.41c-.06,0-.85-.05-1,.35a2.28,2.28,0,0,1,.93.13Z" />
                        <path fill="#171714"
                            d="M4,2.94a3.34,3.34,0,0,1,1.17-.47.41.41,0,0,1,.28.3c.4,1-.13,2.45,1.17,3a32.67,32.67,0,0,1,4.34,1.62l.14.16a3.62,3.62,0,0,0-.94,2.32.74.74,0,0,1-.76.08c-.07-.12-.11,0-.2,0L9.09,10c-.33-.06-.37-.71-.69-.42L8,9.14s-.1.06-.08.11c-.25,0-.32-.31-.41-.48a.33.33,0,0,1-.23.06l-.09,0-.25-.4a.19.19,0,0,1-.19.05c-.15-.05-.22-.35-.36-.45,0,.06-.11,0-.17,0A2.54,2.54,0,0,1,6,7.67a.17.17,0,0,1-.24,0,.17.17,0,0,1-.08-.13C5.79,6.94,4.8,7,4.9,6.38,3.63,6.08,4,4.66,3.63,3.87a.45.45,0,0,0-.16-.08A1.35,1.35,0,0,1,4,2.94" />
                        <path fill="#171714"
                            d="M5.09,22.6c.35-.14.9.24,1.41.26a.66.66,0,0,0,.72-.18c.28.09,0-.61,0-1.26,0-.14-.07-.31.09-.4-.07-.17-.2,0-.29-.08a1.19,1.19,0,0,1,.2-.77l-.28-.05c-.15-.24.38-.61-.08-.74,0-.31.64-.74.05-.87l.52-.82c-.1,0-.14-.07-.2-.1-.07-.34,1-.66.32-.82a4.57,4.57,0,0,1,1.69-1.14,5.7,5.7,0,0,1,2.53,0,4.44,4.44,0,0,1,.77.74c0,.21.23.48.49,1.1,0,0-.11.62-.13.52A3,3,0,0,0,10,19.43c-.72,1.5-.17,3.38,0,4.91-.79.81-2.15.58-3.29.55-.32,0-.74-.19-1-.1,0,0-.85-.67-.91-1.19a1.36,1.36,0,0,1,.26-1" />
                        <path fill="#c21a24"
                            d="M12.74,16.92a8.36,8.36,0,0,0-1.31-.71,2,2,0,0,1,1.09.12s.34.71.22.59" />
                        <path fill="#fff" d="M11.25,4a1,1,0,0,0,.08.74c.26-.23.19-.48.44-.72Z" />
                        <path class="cls-8" fill="none" stroke="#171714" stroke-width="0.05px"
                            stroke-miterlimit="11.47"
                            d="M11.25,4a1,1,0,0,0,.08.74c.26-.23.19-.48.44-.72Z" />
                        <path fill="#c21a24"
                            d="M12.34,5.32a9.92,9.92,0,0,1,1.31.09V5.19a7.25,7.25,0,0,0-1.54-.35c-.84,0-1.61.35-2.4-.1-.18-.15-.34-.41-.52-.51a.72.72,0,0,0-.11.6c.11.5.75.62,1.25.68a6.11,6.11,0,0,0,1.2,0,4.55,4.55,0,0,1,.8-.17" />
                        <path fill="#fff" d="M11.8,4a1,1,0,0,0,.08.74c.26-.24.19-.49.44-.72Z" />
                        <path class="cls-8" fill="none" stroke="#171714" stroke-width="0.05px"
                            stroke-miterlimit="11.47"
                            d="M11.8,4a1,1,0,0,0,.08.74c.26-.24.19-.49.44-.72Z" />
                        <path fill="#fff" d="M11.53,5.94a.5.5,0,0,1-.05-.72c.25.22.17.47.44.73Z" />
                        <path class="cls-8" fill="none" stroke="#171714" stroke-width="0.05px"
                            stroke-miterlimit="11.47"
                            d="M11.53,5.94a.5.5,0,0,1-.05-.72c.25.22.17.47.44.73Z" />
                        <path fill="#fff" d="M11.94,5.93A1,1,0,0,1,12,5.2c.26.24.19.49.44.72Z" />
                        <path class="cls-8" fill="none" stroke="#171714" stroke-width="0.05px"
                            stroke-miterlimit="11.47"
                            d="M11.94,5.93A1,1,0,0,1,12,5.2c.26.24.19.49.44.72Z" />
                        <path fill="#171714"
                            d="M13.14,5.65c.19-.07.24-.6.24-.6a1,1,0,0,0-.2-.63,1.11,1.11,0,0,0-.77-.22H11.09a.78.78,0,0,1,.06-.28.41.41,0,0,0,.06-.2,1.9,1.9,0,0,1-.06-1c1.4.49,2.51-.56,3.93-.52.54-.06.73.14,1.12.65.42.83,1.13,0,1.58.53a1,1,0,0,1,.23,1,1.48,1.48,0,0,1-1.12.51c.5.17.52.66.64,1,0,.67-.57,1.38-.07,2-.07.14-.27.06-.34.14.24.26.22.66.34.92-.15.22-.28-.08-.45,0a1.8,1.8,0,0,0,.25.77c-.14.15-.5,0-.6,0a.67.67,0,0,1,0,.66c-.1-.09-.23-.09-.33-.19-.05.17.13.42,0,.56-.1,0-.2-.14-.32-.14A13.75,13.75,0,0,0,16.31,14c.37,1.1,1.86,2,1.29,3.26L17.31,17l0,.37a.43.43,0,0,1-.17.13c-.22.07-.21-.49-.55-.53.57,1,.25,2.29.27,3.47-.05,1.63.94,2.88,1.49,4.27a4,4,0,0,1-3.07,1.9,1.74,1.74,0,0,1-1.42-.16,2.52,2.52,0,0,1-.72-1.13,1.23,1.23,0,0,1,.15-.64,2.27,2.27,0,0,1,2.16-.23c.39.09.48.1.48.1,0-.75-.87-1.21-1.24-1.84l-.12.18c-.25-.17-.2-.38-.25-.62H14.3c-.13.08.14.18-.07.25-.24-.2-.22-.48-.34-.74l0,.27c-.28-.12-.3-.47-.28-.77-.14.08-.14.21-.23.3-.27-.2-.17-.63-.08-.89l-.28.15c-.31-.22.1-.43,0-.71a.17.17,0,0,1-.25,0,14.92,14.92,0,0,1,.43-2.52c.11-.71-2.24-3.53-2.3-3.68-.15-.33-.23-.72-.34-.74s-.6-.28-.6.08c-.2-.11-.5,0-.67-.23v.15c-.2.18-.39-.06-.6,0a.26.26,0,0,1-.23.12c-.26,0-.59-.27-.71,0-.16-.14-.47,0-.6-.26-.22-.08-.1.18-.27.23l-.57-.3L6.11,13c-.67.07-1.1-.38-1.6-.7s-.67-.82-1.18-1.1a.6.6,0,0,0-.52,0,1.77,1.77,0,0,1-.14-.57,1.62,1.62,0,0,1,.25-.91,1.39,1.39,0,0,1,1.29-.68c.86.44.93,1.37,1.65,1.94-.49.23,4.21-.62,4.52-1.06C10.61,8.65,10.82,7.58,12,7c1-.94,2.82-.11,3.82-1.15.7-.61.05-1.81.92-2.32a1.45,1.45,0,0,1,1,.11c-.08-.18-.32-.23-.52-.25-1.39-.14-.82,1.31-1.24,2-.72,1.7-3.07.6-4.44.73,0,0-.31-.28-.23-.46a18.45,18.45,0,0,0,1.85,0" />
                        <path fill="#c21a24"
                            d="M15.63,3.44c-.15.09-.42,0-.6,0a9.07,9.07,0,0,0-1.33,0l-.08-.08c.3-.37,1.54-.25,2,.08" />
                        <path fill="#fff" d="M14.3,3.74a.44.44,0,0,1,.76,0,.44.44,0,0,1-.76,0" />
                        <path fill="#171714"
                            d="M14.7,3.86a.19.19,0,0,0,.2-.18.19.19,0,0,0-.2-.19.2.2,0,0,0-.2.19.19.19,0,0,0,.2.18" />
                        <path fill="#c21a24"
                            d="M4.88,23.34A1.48,1.48,0,0,1,4.93,23c-.27,0-.88,0-1.06.42.27,0,.82,0,1,.21a3.31,3.31,0,0,1,0-.33" />
                        <path fill="#c21a24"
                            d="M5,23.81a1.29,1.29,0,0,1-.08-.3c-.21.11-.84.37-.84.77.24-.06.7-.37,1.1-.18a3.11,3.11,0,0,1-.17-.3" />
                        <path fill="#c21a24"
                            d="M5.2,24.25A1.42,1.42,0,0,1,5,24c-.18.16-.58.46-.46.86.23-.13.55-.41.88-.35,0,0-.19-.16-.26-.24" />
                        <path fill="#c21a24"
                            d="M5.58,24.59a1.64,1.64,0,0,1-.26-.2c-.1.2-.33.57-.09.88.29-.34.38-.5.68-.54,0,0-.24-.09-.32-.14" />
                        <path fill="#c21a24"
                            d="M14,26.49a1.41,1.41,0,0,1-.27-.21c-.11.22-.39.66-.11,1,.17-.21.38-.59.73-.64,0,0-.25-.1-.34-.15" />
                        <path fill="#c21a24"
                            d="M14.77,26.66a1.76,1.76,0,0,1-.35,0c0,.23.08.67.49.81,0-.45,0-.63.24-.83a3.28,3.28,0,0,1-.38,0" />
                        <path fill="#c21a24"
                            d="M13.28,25.43a1.36,1.36,0,0,1-.06-.32c-.26.11-.86.32-.9.76.28-.06.81-.28,1.11-.12a2.36,2.36,0,0,1-.15-.32" />
                        <path fill="#c21a24"
                            d="M13.59,26a1.55,1.55,0,0,1-.18-.28c-.17.17-.71.61-.58,1,.22-.14.57-.57,1-.5a3.63,3.63,0,0,1-.27-.24" />
                        <path fill="#c21a24"
                            d="M13.3,24.86a1.64,1.64,0,0,1,.12-.31c-.3,0-1-.1-1.24.25.26.08.92.12,1.08.41a2.66,2.66,0,0,1,0-.35" />
                        <path class="cls-9" fill="none" stroke="#171714" stroke-miterlimit="3.86"
                            stroke-width="0.45px"
                            d="M.23,17.67V.23H23.81V17.67c0,7.38-6.71,11.1-11.8,11.1C6.52,28.77.22,25.06.23,17.67Z" />
                    </g>
                </g>
            </g>
        </symbol>
        <symbol
            id="ar" viewBox="0 0 24.03 29" preserveAspectRatio="xMinYMid">
            <style>
        .cls-1,.cls-4,.cls-8,.cls-9{fill:none;}.cls-2{clip-path:url(#clip-path);}.cls-3{fill:#fff;}.cls-4{stroke:#fff;stroke-width:0.02px;}.cls-4,.cls-8{stroke-miterlimit:11.47;}.cls-5{fill:#faf214;}.cls-6{fill:#c21a24;}.cls-7{fill:#171714;}.cls-8,.cls-9{stroke:#171714;}.cls-8{stroke-width:0.05px;}.cls-9{stroke-miterlimit:3.86;stroke-width:0.45px;}</style>
            <clipPath id="clip-path">
                <rect class="cls-1" width="24.03" height="29" />
            </clipPath>
            <g>
                <g>
                    <g class="cls-2">
                        <path class="cls-3"
                            d="M5.85,23.52a22.19,22.19,0,0,1,3.08.15.62.62,0,0,1,.32.83l0,0a.63.63,0,0,0-.45-.75,18.71,18.71,0,0,0-3-.19.53.53,0,0,1-.35-.5.73.73,0,0,0,.47.44" />
                        <path class="cls-4"
                            d="M5.85,23.52a22.19,22.19,0,0,1,3.08.15.62.62,0,0,1,.32.83l0,0a.63.63,0,0,0-.45-.75,18.71,18.71,0,0,0-3-.19.53.53,0,0,1-.35-.5A.73.73,0,0,0,5.85,23.52Z" />
                    </g>
                    <path class="cls-5" d="M4.79,25.9l-.25-.21Z" />
                    <g class="cls-2">
                        <path class="cls-3"
                            d="M23.64.4.45.42v17.2c0,6,5.2,10.94,11.59,10.94s11.59-4.9,11.59-10.94Z" />
                        <path class="cls-6"
                            d="M3.36,9.32a1.9,1.9,0,0,1,.28-.17c-.2-.17-.83-.76-1.26-.62.16.19.78.73.73,1a2.86,2.86,0,0,1,.25-.25" />
                        <path class="cls-6"
                            d="M3,9.78a1.26,1.26,0,0,1,.21-.24c-.23-.09-1-.42-1.32-.17.2.14.88.31,1,.72A2.17,2.17,0,0,1,3,9.78" />
                        <path class="cls-6"
                            d="M2.77,10.33a1.34,1.34,0,0,1,.1-.3c-.25,0-.76-.08-1,.26.26.06.7.1.88.37a2.39,2.39,0,0,1,0-.33" />
                        <path class="cls-6"
                            d="M3.95,9.09a1.8,1.8,0,0,1,.34,0c-.07-.25-.41-1-.84-1.14,0,.25.37,1,.15,1.22l.35-.09" />
                        <path class="cls-6" d="M2.74,10.66s-.8.25-.8.68a2.39,2.39,0,0,1,.92-.2Z" />
                        <path class="cls-6"
                            d="M5.08,22.87a1.4,1.4,0,0,1,.15-.28c-.28-.05-.92-.19-1.2.11.24.1.85.21,1,.49a2.61,2.61,0,0,1,.08-.32" />
                        <path class="cls-7"
                            d="M17,2.39a.75.75,0,0,1-.14.71c-.67.16-.57-.81-1.24-1A.88.88,0,0,1,17,2.39" />
                        <path class="cls-6"
                            d="M4.51,2.83a1.51,1.51,0,0,1,.33,0c-.1-.23-.54-1-1-1C4,2,4.36,2.69,4.17,3a2.77,2.77,0,0,1,.34-.12" />
                        <path class="cls-6"
                            d="M4.16,3.1a1.94,1.94,0,0,1,.29-.16c-.18-.16-.71-.69-1.14-.59.25.14.68.57.59,1a2.85,2.85,0,0,1,.26-.23" />
                        <path class="cls-6"
                            d="M4.11,3.36a1.22,1.22,0,0,1,.2-.25C4.08,3,3.22,2.79,2.87,3c.27.06,1,.32,1.1.62,0,0,.09-.22.14-.31" />
                        <path class="cls-6"
                            d="M5,2.68a1.59,1.59,0,0,1,.33.05c0-.26-.2-1.09-.59-1.26.07.25.16,1-.1,1.23a2.42,2.42,0,0,1,.36,0" />
                        <path class="cls-6" d="M4,3.38c-.06,0-.85-.05-1,.35a2.28,2.28,0,0,1,.93.13Z" />
                        <path class="cls-7"
                            d="M4,2.91a3.34,3.34,0,0,1,1.17-.47.41.41,0,0,1,.28.3c.41,1-.13,2.45,1.18,3A32.7,32.7,0,0,1,11,7.3l.14.16a3.62,3.62,0,0,0-.94,2.32.74.74,0,0,1-.76.08c-.07-.12-.11,0-.2,0l-.09.08c-.33-.06-.37-.71-.69-.42L8,9.12s-.1.06-.08.11c-.25,0-.32-.31-.4-.48a.33.33,0,0,1-.23.06l-.09,0-.25-.4a.19.19,0,0,1-.19.05c-.15-.05-.22-.35-.36-.45,0,.06-.12,0-.17,0A2.54,2.54,0,0,1,6,7.64a.17.17,0,0,1-.24,0,.17.17,0,0,1-.08-.13c.15-.65-.84-.58-.74-1.21-1.27-.29-.85-1.72-1.27-2.5a.46.46,0,0,0-.16-.08A1.35,1.35,0,0,1,4,2.91" />
                        <path class="cls-7"
                            d="M1.67,14.93V15a1.25,1.25,0,0,1,.88.54,62.29,62.29,0,0,1,2.34,5.85H5c.72-1.83,1.51-3.79,2.31-5.76.34-.68.62-.52,1-.59V15H6.13V15c.25,0,.55,0,.67.31a7.52,7.52,0,0,1-.63,2.16c-.35,1-.58,1.64-.94,2.56C4.7,18.54,4,17.12,3.59,15.51c0-.4.17-.49.73-.51v-.06Z" />
                        <path class="cls-7"
                            d="M19.71,21V21c-.22-.11-.39-.06-.58-.41,0-.89-.05-1.77,0-2.64,0-.05.09-.08.18.07.46.76,1.42,3,2.67,2.91h.25a7.61,7.61,0,0,1-1.63-2.28c-.14-.28-.26-.47-.24-.59,0-.31.57,0,1.41-.54a1.52,1.52,0,0,0,.58-1.34c-.18-1.38-2.19-1.3-3.49-1.12a2.74,2.74,0,0,1-.65,0c-.35,0-.71-.12-.62-.08s.44.12.62.36c.07,2.09.05,3.15,0,5.13-.14.46-.43.5-.73.56V21Z" />
                        <path class="cls-3"
                            d="M21.48,15.78a1.51,1.51,0,0,1,0,1.33,2.37,2.37,0,0,1-2,.56,14,14,0,0,1,0-2.38,1.55,1.55,0,0,1,2,.49" />
                        <path class="cls-7"
                            d="M5.12,22.57c.35-.14.9.24,1.41.26a.66.66,0,0,0,.72-.18c.28.09,0-.61,0-1.26,0-.14-.07-.31.09-.4-.07-.17-.2,0-.29-.08a1.19,1.19,0,0,1,.2-.77l-.28-.05c-.15-.24.38-.61-.08-.74,0-.31.64-.74.05-.87l.52-.82c-.1,0-.14-.07-.2-.1-.07-.34,1-.66.32-.82a4.56,4.56,0,0,1,1.69-1.14,5.7,5.7,0,0,1,2.53,0,4.41,4.41,0,0,1,.77.74c0,.21.23.48.48,1.11,0,0-.11.62-.13.52a3,3,0,0,0-2.81,1.47c-.72,1.5-.17,3.38,0,4.91-.79.81-2.15.58-3.28.55-.32,0-.74-.19-1-.09,0,0-.85-.67-.91-1.19a1.36,1.36,0,0,1,.26-1" />
                        <path class="cls-6"
                            d="M12.77,16.89a8.37,8.37,0,0,0-1.31-.71,2,2,0,0,1,1.09.12s.34.71.22.59" />
                        <path class="cls-3" d="M11.28,4a1,1,0,0,0,.08.74c.26-.23.18-.48.44-.72Z" />
                        <path class="cls-8" d="M11.28,4a1,1,0,0,0,.08.74c.26-.23.18-.48.44-.72Z" />
                        <path class="cls-6"
                            d="M12.38,5.29a10.12,10.12,0,0,1,1.31.09V5.16a7.32,7.32,0,0,0-1.54-.35c-.84,0-1.61.35-2.4-.1-.18-.15-.34-.4-.52-.51a.72.72,0,0,0-.11.6c.11.5.75.62,1.25.68a6.18,6.18,0,0,0,1.2,0,4.54,4.54,0,0,1,.8-.17" />
                        <path class="cls-3" d="M11.83,4a1,1,0,0,0,.08.74c.26-.24.19-.49.44-.72Z" />
                        <path class="cls-8" d="M11.83,4a1,1,0,0,0,.08.74c.26-.24.19-.49.44-.72Z" />
                        <path class="cls-3" d="M11.56,5.92a.5.5,0,0,1-.05-.72c.25.22.17.47.44.73Z" />
                        <path class="cls-8" d="M11.56,5.92a.5.5,0,0,1-.05-.72c.25.22.17.47.44.73Z" />
                        <path class="cls-3" d="M12,5.91a1,1,0,0,1,.08-.74c.26.24.19.49.44.72Z" />
                        <path class="cls-8" d="M12,5.91a1,1,0,0,1,.08-.74c.26.24.19.49.44.72Z" />
                        <path class="cls-7"
                            d="M13.17,5.62c.19-.07.24-.6.24-.6a1,1,0,0,0-.2-.63,1.1,1.1,0,0,0-.77-.22H11.12a.77.77,0,0,1,.06-.28.42.42,0,0,0,.06-.2,1.91,1.91,0,0,1-.06-1c1.4.49,2.51-.56,3.93-.52.54-.06.73.14,1.11.65.42.83,1.13,0,1.58.53a1,1,0,0,1,.23,1,1.49,1.49,0,0,1-1.12.51c.5.17.52.66.64,1,0,.67-.57,1.38-.07,2-.07.14-.27.06-.34.14.24.26.22.66.34.92-.15.22-.28-.08-.45,0a1.79,1.79,0,0,0,.25.77c-.14.15-.5,0-.6,0a.67.67,0,0,1,0,.66c-.1-.09-.23-.09-.33-.19-.05.17.13.42,0,.56-.1,0-.2-.14-.32-.14A13.7,13.7,0,0,0,16.34,14c.37,1.1,1.86,2,1.29,3.26l-.29-.31,0,.37a.43.43,0,0,1-.17.13c-.22.07-.21-.49-.55-.53.57,1,.25,2.29.27,3.47-.05,1.63.94,2.88,1.49,4.27a4,4,0,0,1-3.07,1.9A1.74,1.74,0,0,1,14,26.38a2.52,2.52,0,0,1-.72-1.13,1.23,1.23,0,0,1,.15-.64,2.27,2.27,0,0,1,2.16-.23c.39.09.48.1.48.1,0-.75-.87-1.21-1.24-1.84l-.12.18c-.25-.17-.2-.38-.25-.62h-.08c-.13.08.14.18-.07.25-.23-.2-.22-.48-.34-.74l0,.27c-.28-.12-.3-.47-.28-.77-.14.08-.14.21-.23.3-.27-.2-.17-.63-.09-.89l-.28.15c-.3-.22.1-.43,0-.71a.17.17,0,0,1-.25,0,14.92,14.92,0,0,1,.43-2.52c.11-.71-2.26-3.53-2.3-3.68s-.29-.47,0-.66a4.25,4.25,0,0,0,1.48-.23,2.23,2.23,0,0,0,.8-1.11c-.22,0-.23.28-.35.42-.45.78-1.4.78-2.26.84-.17,0-.6-.28-.6.08-.2-.11-.5,0-.67-.23v.15c-.2.18-.39-.06-.6,0a.26.26,0,0,1-.23.12c-.26,0-.59-.27-.71,0-.17-.14-.47,0-.6-.26-.22-.08-.1.18-.27.23l-.57-.3L6.14,13c-.67.07-1.11-.38-1.61-.7s-.67-.82-1.18-1.1a.6.6,0,0,0-.52,0,1.77,1.77,0,0,1-.14-.57A1.62,1.62,0,0,1,3,9.71,1.39,1.39,0,0,1,4.25,9c.86.44.93,1.37,1.65,1.94-.49.23-.47,0-.12.22a17.65,17.65,0,0,0,4.71-1.33l-.09-.08A3,3,0,0,1,12.06,7c1-.94,2.83-.11,3.82-1.15.7-.61.05-1.81.92-2.32a1.45,1.45,0,0,1,1,.11c-.08-.18-.32-.23-.52-.25-1.39-.14-.82,1.31-1.24,2-.72,1.7-3.07.6-4.44.73,0,0-.31-.28-.23-.46a18.43,18.43,0,0,0,1.85,0" />
                        <path class="cls-6"
                            d="M15.69,3.33c-.15.09-.42,0-.6,0a9.08,9.08,0,0,0-1.33,0l-.08-.08c.3-.37,1.54-.25,2,.08" />
                        <path class="cls-3"
                            d="M14.34,3.71a.41.41,0,0,1,.38-.22.41.41,0,0,1,.38.22.44.44,0,0,1-.76,0" />
                        <path class="cls-7"
                            d="M14.74,3.83a.19.19,0,0,0,.2-.18.19.19,0,0,0-.2-.19.2.2,0,0,0-.2.19.19.19,0,0,0,.2.18" />
                        <path class="cls-6"
                            d="M4.91,23.31A1.48,1.48,0,0,1,5,23c-.27,0-.88,0-1.06.42.27,0,.82,0,1,.21,0,0,0-.24,0-.33" />
                        <path class="cls-6"
                            d="M5,23.79a1.29,1.29,0,0,1-.08-.3c-.21.11-.84.37-.84.77.24-.06.7-.37,1.1-.18a3,3,0,0,1-.17-.3" />
                        <path class="cls-6"
                            d="M5.23,24.22A1.42,1.42,0,0,1,5.07,24c-.18.16-.58.46-.46.86.23-.13.55-.41.88-.35,0,0-.19-.16-.26-.24" />
                        <path class="cls-6"
                            d="M5.61,24.56a1.7,1.7,0,0,1-.26-.2c-.1.2-.33.57-.09.88.29-.34.38-.5.68-.54,0,0-.24-.09-.32-.14" />
                        <path class="cls-6"
                            d="M14.07,26.46a1.41,1.41,0,0,1-.27-.21c-.11.22-.39.66-.11,1,.17-.21.38-.59.73-.64,0,0-.25-.1-.34-.15" />
                        <path class="cls-6"
                            d="M14.8,26.63a1.86,1.86,0,0,1-.35,0c0,.23.08.67.49.81,0-.45,0-.63.24-.83a3.28,3.28,0,0,1-.38,0" />
                        <path class="cls-6"
                            d="M13.31,25.4a1.33,1.33,0,0,1-.06-.32c-.26.11-.86.32-.89.76.28-.06.81-.29,1.11-.12a2.24,2.24,0,0,1-.15-.32" />
                        <path class="cls-6"
                            d="M13.62,26a1.59,1.59,0,0,1-.18-.28c-.17.17-.71.61-.58,1,.22-.14.57-.57,1-.5a3.63,3.63,0,0,1-.27-.24" />
                        <path class="cls-6"
                            d="M13.34,24.84a1.6,1.6,0,0,1,.12-.31c-.3,0-1-.1-1.24.25.26.08.92.12,1.08.41a2.66,2.66,0,0,1,0-.35" />
                        <path class="cls-9"
                            d="M.23,17.67V.23H23.81V17.67c0,7.38-6.71,11.1-11.8,11.1C6.52,28.77.22,25.06.23,17.67Z" />
                    </g>
                </g>
            </g>
        </symbol>
        x="0px" y="0px" width="406.505px" height="492.818px" viewBox="-176.002 -213.546 406.505
        492.818" enable-background="new -176.002 -213.546 406.505 492.818" xml:space="preserve" <symbol
            id="bs" viewBox="0 0 24.03 29" preserveAspectRatio="xMinYMid">
            <style>
        .cls-1,.cls-4{fill:none;}.cls-2{clip-path:url(#clip-path);}.cls-3{fill:#fff;}.cls-4{stroke:#171714;stroke-miterlimit:3.86;stroke-width:0.45px;}.cls-5{fill:#171714;}</style>
            <clipPath id="clip-path">
                <rect class="cls-1" width="24.03" height="29" />
            </clipPath>
            <g>
                <g>
                    <g class="cls-2">
                        <path class="cls-3"
                            d="M.23,17.67V.23H23.81V17.67c0,7.38-6.71,11.1-11.8,11.1C6.52,28.77.22,25.06.23,17.67" />
                        <path class="cls-4"
                            d="M.23,17.67V.23H23.81V17.67c0,7.38-6.71,11.1-11.8,11.1C6.52,28.77.22,25.06.23,17.67Z" />
                        <path class="cls-5"
                            d="M7.31,2.13a6.24,6.24,0,0,1,2.56-.06,5.68,5.68,0,0,1,3.84,2.56,6.75,6.75,0,0,1,1,2.13,16.08,16.08,0,0,1,.55,3.78H10a11.64,11.64,0,0,0,.18-2.81,2.6,2.6,0,0,0-1.71-2.2,1.66,1.66,0,0,0-1.1,0A1.71,1.71,0,0,0,6.21,6.71c-.12.49,0,1.19.55,1.27a.61.61,0,0,0,.61-.3c.12-.36-.25-.55-.55-.61a.94.94,0,0,1,.3-.55,1.08,1.08,0,0,1,.67-.18,1.52,1.52,0,0,1,1.12.95,1.92,1.92,0,0,1-.5,2,2.62,2.62,0,0,1-2.32.61A3.09,3.09,0,0,1,4,8,4.46,4.46,0,0,1,7.31,2.13" />
                        <path class="cls-5" d="M16.78,13.33a.7.7,0,1,0,0-1.4H8.56a.7.7,0,1,0,0,1.4Z" />
                        <path class="cls-5"
                            d="M15.87,11.67a.46.46,0,1,0,0-.92H9.35a.46.46,0,0,0,0,.92Z" />
                        <path class="cls-5"
                            d="M16.33,14.47a.43.43,0,0,0,0-.85H8.89a.43.43,0,0,0,0,.85Z" />
                    </g>
                    <polygon class="cls-5"
                        points="12.61 14.69 9.2 14.69 7.41 25.87 10.46 23.59 12.61 25.9 14.76 23.59 17.81 25.87 16.02 14.69 12.61 14.69" />
                </g>
            </g>
        </symbol>
        <symbol
            id="fr" viewBox="0 0 24.03 29" preserveAspectRatio="xMinYMid">
            <style>
        .cls-1,.cls-4{fill:none;}.cls-2{clip-path:url(#clip-path);}.cls-3{fill:#fff;}.cls-4{stroke:#171714;stroke-miterlimit:3.86;stroke-width:0.45px;}.cls-5{fill:#171714;}
            </style>
            <style>
        .cls-1,.cls-4{fill:none;}.cls-2{clip-path:url(#clip-path);}.cls-3{fill:#fff;}.cls-4{stroke:#171714;stroke-miterlimit:3.86;stroke-width:0.45px;}.cls-5{fill:#171714;}</style>
            <clipPath id="clip-path">
                <rect class="cls-1" width="24.03" height="29" />
            </clipPath>
            <g>
                <g>
                    <g class="cls-2">
                        <path class="cls-3"
                            d="M.23,17.67V.22H23.76l0,17.44c0,7.38-6.71,11.1-11.8,11.1C6.52,28.77.22,25.05.23,17.67" />
                        <path class="cls-4"
                            d="M.23,17.67V.22H23.76l0,17.44c0,7.38-6.71,11.1-11.8,11.1C6.52,28.77.22,25.05.23,17.67Z" />
                    </g>
                    <rect class="cls-5" x="0.39" y="0.37" width="23.26" height="13.45" />
                </g>
            </g>
        </symbol>
        <symbol
            id="ge" viewBox="0 0 24.03 29" preserveAspectRatio="xMinYMid">

            <style>
        .cls-1,.cls-7{fill:none;}.cls-2{clip-path:url(#clip-path);}.cls-3{fill:#c2172e;}.cls-4{fill:#f2db38;}.cls-5{fill:#171714;}.cls-6{fill:#fff;}.cls-7{stroke:#171714;stroke-miterlimit:3.86;stroke-width:0.45px;}</style>
            <clipPath id="clip-path">
                <rect class="cls-1" width="24.03" height="29" />
            </clipPath>
            <g>
                <g>
                    <g class="cls-2">
                        <path class="cls-3"
                            d="M12,28.62c6.39,0,11.58-4.89,11.58-10.93V.4H12.06V28.62Z" />
                        <path class="cls-4" d="M12,28.49V.4H.46V18C.46,24,5.65,28.63,12,28.63Z" />
                        <path class="cls-3"
                            d="M4.18,21.23c0,.08.38.35,0,.47-.09.11-.45-.27-.45-.27-.29-.12-.46.19-.61.29a.79.79,0,0,1,.1-.27c.25-.53.8-.26.92-.21" />
                        <path class="cls-3"
                            d="M9.14,23.14c0,.23,0,.49-.23.64.06-.6-.31-.53-.52-.88a.2.2,0,0,1,0-.22,1.2,1.2,0,0,1,.73.46" />
                        <path class="cls-3"
                            d="M3.82,22.8c.39,0,0,.06.07.31-.49,0-.54.6-.59.77-.14-.31-.25-.47,0-.76s.24-.29.56-.32" />
                        <path class="cls-3"
                            d="M5,24.93c.06.08-.07.49.29.71a1,1,0,0,1-.61-.31s-.07-.38.18-.4c.09,0,.11,0,.14,0" />
                        <path class="cls-3"
                            d="M9.19,19.69c-.6,1-1.49,1.67-2.06,2.6,0,.11-.09.19,0,.22a2.7,2.7,0,0,1,1.46.07c.12.15,0,.34,0,.49-.28.54-.77,0-1.13,0L6.84,23s-.27.07-.24.07a3.09,3.09,0,0,0-1.34,1.82.66.66,0,0,1-.68.14c-.28-.67.38-1.07.59-1.36l.4-.4c-.26-.25-.46,0-.78,0a1.94,1.94,0,0,1-.62.15l-.23,0c-.1,0-.12-.14-.12-.14s-.26-.42-.08-.56c.64-.11,1,.33,1.41.1.06-.1-.17-.12-.17-.12a2.87,2.87,0,0,1-1-.91c0-.22.3-.32.44-.47l.26.05c.31.46.41.95,1.11,1,.26,0,.4-.11.59-.23l2.31-2.68c.15,0,.45,0,.47.26" />
                        <path class="cls-3"
                            d="M8.51,7.4a5.37,5.37,0,0,0-.88-.74c-.79-.36-1.8.13-2.52-.3A.66.66,0,0,1,5,5.71c-.21.05-.29.23-.4.37a.71.71,0,0,0,.13.71c.4.33,1,.11,1.51.09a4.34,4.34,0,0,1,1.2,0c.39.13,1.09.53,1.06.49" />
                        <path class="cls-5"
                            d="M12.11,7.13a4.88,4.88,0,0,0-.41-.43c.11-.12.3-.22.39-.39l0-.09c-.21.14-.44,0-.65-.13s-.11-.09-.1-.17c.18,0,.33-.29.44-.42a2.84,2.84,0,0,1-.34,0c-.61,0-.53-.74-.55-.77l-3.12,0-.3.64,2.79,3a5,5,0,0,1,.41,1,1.33,1.33,0,0,0-1.08,0l-.49.45c-1.22-.75-2.18,1-3.46.15-.21-.15-.12-.47-.11-.68S5.82,9,6,8.9c-.2-.56-.75-.94-1.07-1.47A54.6,54.6,0,0,1,1.47,1.85c-.23.12-.24.41-.36.63C.59,4,1.62,5.18,2.4,6.33a16.28,16.28,0,0,0,2,2c0,.09.11.17.11.26H4.28A14.92,14.92,0,0,1,1.1,6.74a1.71,1.71,0,0,0,.41,2,7.93,7.93,0,0,0,2.77.91l0,.06a9.48,9.48,0,0,1-3.31.13.92.92,0,0,0,.31,1c.93.68,2.28.2,3.16-.21h0l0,.14a12.42,12.42,0,0,1-3.33,1.69,1.31,1.31,0,0,0,.59.76c1.42.4,2.48-.85,3.31-1.81h.1a1.94,1.94,0,0,1-.37.89,35.34,35.34,0,0,1-3.24,4.32c.39.38,1,.25,1.48.13,1.78-.82,2.16-2.78,3-4.29l.26-.59.15,0,0,.36a72.42,72.42,0,0,1-2.72,8,2.35,2.35,0,0,0,.91-.16c2-.67,2-2.88,2.45-4.53.21-1.19.38-2.4.57-3.59a.2.2,0,0,1,.18,0,39.23,39.23,0,0,1-.16,5.27l-.09,1.13a2.94,2.94,0,0,0,1.74-2.14A31.07,31.07,0,0,0,9,11.68c0-.1.1-.17.17-.21h.1c.4,1.13.72,2.27,1.06,3.43-.7,1.73-1.71,3.34-2.46,5.06l1.21-.27a21.39,21.39,0,0,0,.77,2.24l0,0c.41-1.41.74-2.88,1.13-4.29l.07,0c.59,1.86,1.28,4.19.26,6.07a3.34,3.34,0,0,1-2.48,2.18c-.16-.07-.41,0-.46-.24-.1-.44.46-.69.38-1.15a.94.94,0,0,0-.49-.62,1.36,1.36,0,0,0-1.38.3c-.1.11-.31.24-.26.43.21.09.41-.13.62-.18s.29,0,.34.18c0,.49-.65.73-.85,1.15a1.12,1.12,0,0,0,0,1.08,2.14,2.14,0,0,0,1.89.35,5.82,5.82,0,0,0,3.06-2.64c.11,0,.11.13.14.21-.08,1-.9,1.64-1.39,2.39-.12.28.18.51.4.64a2.18,2.18,0,0,1,1.16.84Z" />
                        <path class="cls-3"
                            d="M9.17,2.06a.55.55,0,0,0,.57-.53.57.57,0,0,0-1.13,0,.55.55,0,0,0,.56.53" />
                        <path class="cls-3"
                            d="M7,3.64a.26.26,0,0,0,.26-.25A.25.25,0,0,0,7,3.15a.25.25,0,0,0-.26.24A.25.25,0,0,0,7,3.64" />
                        <path class="cls-3" d="M7.27,3.21a.25.25,0,1,0,0-.49.25.25,0,1,0,0,.49" />
                        <path class="cls-3" d="M7.66,2.87a.25.25,0,1,0-.27-.25.25.25,0,0,0,.27.25" />
                        <path class="cls-3" d="M8.15,2.64a.25.25,0,1,0,0-.49.25.25,0,1,0,0,.49" />
                        <path class="cls-3" d="M9.18,2.49a.25.25,0,0,0,.26-.25.26.26,0,1,0-.26.25" />
                        <path class="cls-3"
                            d="M9.71,2.54A.25.25,0,0,0,10,2.29a.26.26,0,0,0-.53,0,.26.26,0,0,0,.27.25" />
                        <path class="cls-3"
                            d="M8.66,2.52a.26.26,0,0,0,.26-.24A.26.26,0,0,0,8.66,2a.25.25,0,0,0-.26.25.25.25,0,0,0,.26.24" />
                        <path class="cls-3" d="M10.22,2.66A.25.25,0,1,0,10,2.42a.25.25,0,0,0,.26.25" />
                        <path class="cls-3" d="M10.68,2.89a.25.25,0,1,0,0-.49.25.25,0,1,0,0,.49" />
                        <path class="cls-3" d="M11.06,3.23A.25.25,0,0,0,11.32,3a.26.26,0,1,0-.26.24" />
                        <path class="cls-3"
                            d="M11.27,3.67a.25.25,0,0,0,.26-.24.25.25,0,0,0-.26-.25.26.26,0,0,0-.27.25.26.26,0,0,0,.27.24" />
                        <path class="cls-3"
                            d="M9.16,2.48c1,0,1.89.51,1.89,1.13a.5.5,0,0,1,0,.07l0,.12a.21.21,0,0,1-.21.16.21.21,0,0,1-.22-.2.25.25,0,0,1,0-.11l0-.1c-.07-.4-.71-.66-1.5-.66s-1.42.26-1.5.66v.1a.2.2,0,0,1,0,.11.21.21,0,0,1-.42,0l0-.12s0,0,0-.07c0-.63.85-1.13,1.89-1.13h0Z" />
                        <path class="cls-3"
                            d="M10.85,4.37a.23.23,0,0,0,.25-.2A.23.23,0,0,0,10.85,4H7.56a.23.23,0,0,0-.25.21.23.23,0,0,0,.25.2Z" />
                        <path class="cls-3"
                            d="M10.69,4.77a.21.21,0,1,0,0-.41h-3a.21.21,0,1,0,0,.41Z" />
                        <path class="cls-3"
                            d="M9.16,2.49a.26.26,0,0,0-.24.25A.25.25,0,0,0,9.18,3a.25.25,0,1,0,0-.49Z" />
                        <path class="cls-3" d="M9.19,3.47a.25.25,0,1,0-.26-.25.26.26,0,0,0,.26.25" />
                        <path class="cls-3"
                            d="M9.17,4a.26.26,0,0,0,.26-.25.25.25,0,0,0-.26-.24.25.25,0,0,0-.26.24A.25.25,0,0,0,9.17,4" />
                        <path class="cls-3"
                            d="M7.83,6.53a3.93,3.93,0,0,0-1.74-.4c-.23,0-.25.19-.36.32a.59.59,0,0,1-.28-.59.62.62,0,0,1,.38-.49c.32-.24.76.21,1-.11.09-.35.62-.14.6-.13l.15.13.66.66A17.2,17.2,0,0,1,9.82,7.8l.19.28.2.35a7.11,7.11,0,0,0-3.62-1c.08-.19.36-.25.46-.35L7.6,7l1.1.37Z" />
                        <path class="cls-6"
                            d="M9.11,5.7c.18,0,.33-.09.33-.2s-.14-.21-.33-.21-.33.09-.33.21.15.2.33.2" />
                        <path class="cls-5"
                            d="M9,5.6a.15.15,0,0,0,.16-.14A.15.15,0,0,0,9,5.31a.15.15,0,0,0-.16.15A.16.16,0,0,0,9,5.6" />
                        <path class="cls-6"
                            d="M8.52,5l-.1.15c-.09.24.69-.18,1.27,0-.72-.08-1.31.37-1.43.11s.14-.23.25-.25" />
                        <path class="cls-7"
                            d="M.23,17.67V.23H23.81V17.67c0,7.38-6.71,11.1-11.8,11.1C6.52,28.77.22,25.06.23,17.67Z" />
                        <path class="cls-4" d="M15.51,25.23a.4.4,0,1,0,0,.81h1.81a.4.4,0,0,0,0-.81Z" />
                    </g>
                    <polygon class="cls-4"
                        points="17.02 9.32 17.86 9.32 17.86 11.94 19.62 11.94 19.62 10.9 21 10.9 21 11.94 22.74 11.94 22.74 10.43 21.66 10.43 21.66 9.32 22.74 9.32 22.74 8.79 22.74 5.54 22.74 5.01 21.66 5.01 21.66 3.9 22.74 3.9 22.74 2.39 21 2.39 21 3.43 19.62 3.43 19.62 2.39 17.86 2.39 17.86 5.01 16.99 5.01 17.02 9.32" />
                    <polygon class="cls-3"
                        points="21.34 7.63 20.27 7.63 20.27 9.2 19.31 9.2 19.31 7.63 18.24 7.63 18.24 6.7 19.31 6.7 19.31 5.13 20.27 5.13 20.27 6.7 21.34 6.7 21.34 7.63" />
                    <g class="cls-2">
                        <path class="cls-4"
                            d="M15.62,18V2.36a.69.69,0,0,1,.25-.55.56.56,0,0,1,.56-.57.56.56,0,0,1,.57.57.7.7,0,0,1,.23.55V18Z" />
                        <path class="cls-4"
                            d="M19.16,22.41a3.28,3.28,0,0,0-2.06,3.44H15.73a3.29,3.29,0,0,0-2.06-3.44V20.88a3.29,3.29,0,0,0,2.06-3.44H17.1a3.29,3.29,0,0,0,2.06,3.44Z" />
                        <path class="cls-3"
                            d="M17,21a.6.6,0,0,1,0,1.21.6.6,0,0,1-1.21,0,.6.6,0,0,1,0-1.21A.6.6,0,1,1,17,21" />
                        <path class="cls-4"
                            d="M17.33,16.78a.4.4,0,1,0,0-.81H15.52a.4.4,0,0,0,0,.81Z" />
                        <path class="cls-4" d="M13.13,22.22a.58.58,0,1,0-.58-.58.58.58,0,0,0,.58.58" />
                        <path class="cls-4" d="M19.7,22.22a.58.58,0,1,1,.58-.58.58.58,0,0,1-.58.58" />
                        <path class="cls-4" d="M15.45,17.67a.4.4,0,1,1,0-.81h1.81a.4.4,0,0,1,0,.81Z" />
                        <path class="cls-4" d="M15.83,26a.58.58,0,1,1,.58.59.58.58,0,0,1-.58-.59" />
                        <path class="cls-4" d="M13.93,20.74a.4.4,0,1,0-.81,0v1.81a.4.4,0,0,0,.81,0Z" />
                        <path class="cls-4"
                            d="M18.89,20.74a.4.4,0,1,1,.81,0v1.81a.41.41,0,0,1-.81,0Z" />
                    </g>
                </g>
            </g>
        </symbol>
        <symbol
            id="gl" viewBox="0 0 24.03 29" preserveAspectRatio="xMinYMid">
            <style>
        .cls-1,.cls-10,.cls-4,.cls-7,.cls-9{fill:none;}.cls-2{clip-path:url(#clip-path);}.cls-3{fill:#c2172e;}.cls-10,.cls-4,.cls-7,.cls-9{stroke:#171714;}.cls-4{stroke-miterlimit:3.86;stroke-width:0.45px;}.cls-5{fill:#f2db38;}.cls-6{fill:#171714;}.cls-10,.cls-7,.cls-9{stroke-miterlimit:11.47;}.cls-7{stroke-width:0.03px;}.cls-8{fill:#fff;}.cls-9{stroke-width:0.08px;}.cls-10{stroke-width:0.05px;}</style>
            <clipPath id="clip-path">
                <rect class="cls-1" width="24.03" height="29" />
            </clipPath>
            <g>
                <g>
                    <g class="cls-2">
                        <path class="cls-3"
                            d="M.23,17.67V.23H23.8V17.67c0,7.38-6.71,11.1-11.8,11.1C6.52,28.77.22,25.06.23,17.67" />
                        <path class="cls-4"
                            d="M.23,17.67V.23H23.8V17.67c0,7.38-6.71,11.1-11.8,11.1C6.52,28.77.22,25.06.23,17.67Z" />
                        <path class="cls-5"
                            d="M13.87,6.78A3,3,0,0,0,17,3.91a3,3,0,0,0-3.11-2.86,3,3,0,0,0-3.11,2.86,3,3,0,0,0,3.11,2.87" />
                        <path class="cls-6"
                            d="M13.81,5.86a2,2,0,0,0,2.09-2,2.1,2.1,0,0,0-4.18,0,2,2,0,0,0,2.09,2" />
                        <ellipse class="cls-7" cx="13.81" cy="3.9" rx="2.09" ry="1.96" />
                        <path class="cls-6"
                            d="M13,5.6l-.57,1.08a6.46,6.46,0,0,1-1.53,1.63A9.44,9.44,0,0,1,8.16,9.45a7.31,7.31,0,0,1-1.57.22l.15,1.5h4.14S9.8,24.5,9.8,24.5c1.33,0,4.08,0,4.08,0S12,14.39,12,14.39l.23-.06,2,10.14h2.07c.07,0,.15.1,0,.25-1,.83-1.52,1.12-1.23,1.55s1-.11,3.26-1.21C18.1,24.2,16.72,13,16.72,13l1.72,0a.71.71,0,0,0,.37-.15c.33-.27.21-.7.11-1.05-.29-1.06-.64-2-1-3.08a7.31,7.31,0,0,0-.49-1.27.7.7,0,0,0-.24-.24c-.5-.27-1-.5-1.47-.81a5.76,5.76,0,0,1-1-.87Z" />
                        <path class="cls-8"
                            d="M14.91,4.31a2.9,2.9,0,0,1-.08,1c-.11.5-1,.39-1.53.42-.14-.06-.23-.07-.37-.42a3.72,3.72,0,0,1-.15-1.92c.2-.34,1.11-.42,1.78-.31s.3.88.35,1.22" />
                        <path class="cls-6"
                            d="M13.59,3.84c0,.18-.08.76,0,1H14V5a2.19,2.19,0,0,1-.57,0,4.15,4.15,0,0,1,0-1c-.11-.28-.51.08-.55-.14s.6-.19.66,0" />
                    </g>
                    <polygon class="cls-8"
                        points="14.62 6.75 14.76 5.59 14.41 6.38 13.31 6.38 13.01 5.65 13.15 6.75 14.62 6.75" />
                    <g class="cls-2">
                        <path class="cls-6"
                            d="M13.14,4.31a.12.12,0,0,0,.12-.12.13.13,0,0,0-.12-.12.12.12,0,0,0-.12.12.12.12,0,0,0,.13.13" />
                        <path class="cls-6" d="M14.29,4.31a.12.12,0,0,0,0-.25.12.12,0,1,0,0,.25" />
                    </g>
                    <polygon class="cls-5"
                        points="6.82 25.86 4.11 2.22 3.25 2.31 6.19 25.95 6.82 25.86" />
                    <g class="cls-2">
                        <path class="cls-5"
                            d="M3.7,2.66c.52-.06.9-.4.85-.75s-.5-.59-1-.52-.9.4-.85.75.49.58,1,.52" />
                        <path class="cls-5"
                            d="M4.39,8.69c.5-.06.87-.38.82-.72s-.47-.56-1-.5-.86.38-.82.72.48.56,1,.5" />
                        <path class="cls-8"
                            d="M5,11.16H6.74l-.15-1.5H3.84a.27.27,0,0,0,.26.28H5a.89.89,0,0,1,.34.14,1.42,1.42,0,0,1,.19.28.37.37,0,0,0-.35-.28Z" />
                        <path class="cls-9"
                            d="M5,11.2h1.7L6.57,9.63H3.8a.28.28,0,0,0,.26.29H5a.86.86,0,0,1,.35.15,1.51,1.51,0,0,1,.19.29.38.38,0,0,0-.35-.3" />
                        <path class="cls-6"
                            d="M10.83,26a.45.45,0,0,0,.45-.45c0-.25,0-.84,0-.84H9.77a1,1,0,0,1-.63.34c-.42.06-1.15.06-1.15.06A.45.45,0,0,0,8,26Z" />
                        <path class="cls-6"
                            d="M13.93,3.86c.09.11.32-.09.4-.08s.34.18.43.11-.17-.24-.44-.26-.46.15-.39.23" />
                        <path class="cls-6"
                            d="M14.07,5.42a.1.1,0,0,0,.09-.1.09.09,0,0,0-.09-.09H13.5a.09.09,0,0,0-.09.09.1.1,0,0,0,.09.1Z" />
                        <path class="cls-8"
                            d="M12.45,12.42l.18-.88H12.4a.16.16,0,0,1-.17-.14.15.15,0,0,1,.17-.15h1.54c.38,0,.25,0,.32.35l.1.8c.06.36.06.33-.33.33h.24l-2,0a.15.15,0,0,1-.16-.14.16.16,0,0,1,.16-.15h.19Z" />
                        <path class="cls-10"
                            d="M12.45,12.42l.18-.88H12.4a.16.16,0,0,1-.17-.14.15.15,0,0,1,.17-.15h1.54c.38,0,.25,0,.32.35l.1.8c.06.36.06.33-.33.33h.24l-2,0a.15.15,0,0,1-.16-.14.16.16,0,0,1,.16-.15h.19Z" />
                        <path class="cls-8"
                            d="M5,10.32c.08,0,.15-.09.15-.2s-.07-.2-.15-.2H4.13a.18.18,0,0,0-.15.2.18.18,0,0,0,.15.2Z" />
                        <path class="cls-9"
                            d="M5,10.32c.08,0,.15-.09.15-.2s-.07-.2-.15-.2H4.13a.18.18,0,0,0-.15.2.18.18,0,0,0,.15.2Z" />
                        <path class="cls-8"
                            d="M5.08,10.64c.09,0,.15-.09.15-.2s-.06-.2-.15-.2H4.17c-.08,0-.15.09-.15.2s.07.2.15.2Z" />
                        <path class="cls-9"
                            d="M5.08,10.64c.09,0,.15-.09.15-.2s-.06-.2-.15-.2H4.17c-.08,0-.15.09-.15.2s.07.2.15.2Z" />
                        <path class="cls-8"
                            d="M5.1,10.94a.17.17,0,0,0,.15-.18.16.16,0,0,0-.15-.18H4.2a.17.17,0,0,0-.15.18.17.17,0,0,0,.15.18Z" />
                        <path class="cls-9"
                            d="M5.1,10.94a.17.17,0,0,0,.15-.18.16.16,0,0,0-.15-.18H4.2a.17.17,0,0,0-.15.18.17.17,0,0,0,.15.18Z" />
                        <path class="cls-8"
                            d="M5.14,11.2A.16.16,0,0,0,5.28,11a.16.16,0,0,0-.14-.17H4.27a.16.16,0,0,0-.15.17.16.16,0,0,0,.15.17Z" />
                        <path class="cls-9"
                            d="M5.14,11.2A.16.16,0,0,0,5.28,11a.16.16,0,0,0-.14-.17H4.27a.16.16,0,0,0-.15.17.16.16,0,0,0,.15.17Z" />
                    </g>
                    <rect class="cls-5" x="12.99" y="9.35" width="2.73" height="1.86" />
                    <rect class="cls-5" x="12.46" y="9.35" width="0.4" height="1.86" />
                    <rect class="cls-5" x="12.08" y="9.35" width="0.27" height="1.86" />
                    <g class="cls-2">
                        <path class="cls-8"
                            d="M12.88,12.12h-.65a.15.15,0,0,0-.16.14.15.15,0,0,0,.16.14h.65Z" />
                        <path class="cls-10"
                            d="M12.88,12.1h-.67a.16.16,0,0,0-.17.16.16.16,0,0,0,.17.16h.67" />
                        <path class="cls-8"
                            d="M12.86,11.84H12.2A.15.15,0,0,0,12,12a.15.15,0,0,0,.16.14h.65Z" />
                        <path class="cls-10"
                            d="M12.86,11.82h-.67A.16.16,0,0,0,12,12a.17.17,0,0,0,.16.17h.67" />
                        <path class="cls-8"
                            d="M12.85,11.83h-.66c-.09,0-.15,0-.22-.13s-.15-.22-.15-.22a.15.15,0,0,1,.06-.2.15.15,0,0,1,.2.09s.06.18.17.18h.59Z" />
                        <path class="cls-10"
                            d="M12.85,11.85h-.67c-.09,0-.15-.05-.22-.14s-.15-.24-.15-.24a.17.17,0,0,1,.06-.22.15.15,0,0,1,.2.1s.06.19.17.2h.61" />
                    </g>
                </g>
            </g>
        </symbol>
        <symbol
            id="gr" viewBox="0 0 24.03 29" preserveAspectRatio="xMinYMid">
            <style>
        .cls-1,.cls-10,.cls-11,.cls-7,.cls-9{fill:none;}.cls-2{clip-path:url(#clip-path);}.cls-3{fill:#fff;}.cls-4{fill:#171714;}.cls-5{fill:#f2db38;}.cls-6{fill:#2673bd;}.cls-10,.cls-11,.cls-7{stroke:#171714;}.cls-7{stroke-miterlimit:3.86;}.cls-11,.cls-7{stroke-width:0.45px;}.cls-8{fill:#c2172e;}.cls-9{stroke:#fff;stroke-width:0.11px;}.cls-10,.cls-11,.cls-9{stroke-miterlimit:11.47;}.cls-10{stroke-width:0.05px;}</style>
            <clipPath id="clip-path">
                <rect class="cls-1" width="24.03" height="29" />
            </clipPath>
            <g>
                <g>
                    <g class="cls-2">
                        <path class="cls-3"
                            d="M23.6,14.05h0V.47H12v0H.42V17.69c0,6,5.19,10.94,11.59,10.94S23.6,23.73,23.6,17.69Z" />
                    </g>
                    <polygon class="cls-4"
                        points="4.4 0.42 0.42 0.42 0.44 13.57 6.22 13.57 6.2 0.42 4.4 0.42" />
                    <polygon class="cls-5"
                        points="16.35 0.4 12.54 0.4 12.54 6.91 18.07 6.91 18.07 0.4 16.35 0.4" />
                    <polygon class="cls-6"
                        points="19.79 0.4 18.07 0.4 18.07 6.91 23.6 6.91 23.6 0.4 19.79 0.4" />
                    <polygon class="cls-6"
                        points="16.35 13.4 12.54 13.4 12.54 6.91 18.07 6.91 18.07 13.4 16.35 13.4" />
                    <rect class="cls-6" x="12.54" y="0.4" width="3.81" height="4.74" />
                    <rect class="cls-5" x="19.79" y="0.4" width="3.81" height="4.74" />
                    <polygon class="cls-5"
                        points="19.79 13.4 23.6 13.4 23.6 6.91 18.07 6.91 18.07 13.4 19.79 13.4" />
                    <rect class="cls-6" x="19.79" y="8.67" width="3.81" height="4.73" />
                    <rect class="cls-5" x="12.54" y="8.67" width="3.81" height="4.73" />
                    <g class="cls-2">
                        <path class="cls-7"
                            d="M.23,17.67V.23H23.81V17.67c0,7.38-6.71,11.1-11.8,11.1C6.52,28.77.22,25.06.23,17.67Z" />
                        <path class="cls-4"
                            d="M4.7,16a5,5,0,0,0,2.65.58c.22.14.33.49.49.74l.57.8a.86.86,0,0,0,.28.27,4,4,0,0,0-.48,1.28c-.29-.1-.66,0-.72-.36-.23-.81-.14-2-1.25-2.13-.37-.11-.87-.47-1.23-.07-.12,0,0-.25-.18-.32-.31.11-.66.42-1,.15-.27-.1-.45-.43-.74-.5l1.08,0c0-.06.12-.16,0-.21a.57.57,0,0,0-.19,0,1.41,1.41,0,0,1-.54,0,2.76,2.76,0,0,1-.18-.3c.48.19,1-.11,1.47.06" />
                        <path class="cls-4"
                            d="M12.93,17.34a2.06,2.06,0,0,1-.56,1.46c.14.21.5.09.73.19a8.85,8.85,0,0,1,2.4.77,5.45,5.45,0,0,1,1.05.59c.24-.11.45-.34.75-.31.58,0,1,.61,1.48.55a.33.33,0,0,1,.17,0c-.07.12,0,.25-.39.32s-.45-.25-.49,0,.17.15.17.27-.51,0-.65-.36c0-.18-.36-.4-.36-.4s-.45-.12-.48.1c.63.68.43,2,1.58,2.26.15.13.06.34,0,.5a17.81,17.81,0,0,0,.09,2.4c-.23.28-.6-.06-.79.3,0,.49-.58.41-.88.61s-.22.14-.3.05c.11-.28.42-.58.51-.88-.14-.11-.24.12-.36.2s-.13.38-.42.36l-.19,0c.32-.35.65-1,1.16-.79a.55.55,0,0,0,.52-.32c0-.77.18-1.74-.63-2a10.88,10.88,0,0,1-1.47-.55,1.76,1.76,0,0,1-.5-.87c-.26-.43-.59-1-1.15-1-.14,0-.17,0-.33,0,.15.23.42.23.65.38a14.35,14.35,0,0,0-3.28.06c0-.26.39-.53.09-.67s-.21.33-.3.49-.24.61-.55.67a8.63,8.63,0,0,0-2-.79,1.69,1.69,0,0,1-.54-.15A1.27,1.27,0,0,0,6.38,21c-.36.18-.57,1.23-1.1.59-.34.12-.26.59-.64.64h-1l.71-.75c0-.06,0-.08-.05-.12a2,2,0,0,0-.51.42c-.19.11-.3-.1-.48-.1.28-.13.67-.37,1-.53a1.09,1.09,0,0,0,.64-.1c1-.14,1.45-1.63,2.63-1.19L9.06,20c.1-.06.37,0,.27-.24H8.49a1.57,1.57,0,0,1,.73-1.43l1.42-.44c.24-.12.61-.24.64-.57.13-.09.3,0,.45.05a1,1,0,0,0,.87-.36.64.64,0,0,1,.33.35" />
                        <path class="cls-4"
                            d="M14.64,21.47a9.35,9.35,0,0,0,.44.91,1.66,1.66,0,0,0,.5.47.44.44,0,0,1-.25.22c-.13.05-.26.07-.33-.07s-.16,0-.27,0c-.29-.07,0-.69,0-1-.33.34-.81,1-.59,1.47.09.24.44.53,0,.67a3.91,3.91,0,0,0-2.36,1.37.2.2,0,0,1-.27.07c-.15-.07-.18-.34-.33-.13a3.38,3.38,0,0,0-.41.62c-.24,0-.65.12-.9.17a6.29,6.29,0,0,1,.39-.85c-.27-.12-.34.34-.51.5h0l-.49.08c.25-.34.61-.54.8-1a3.37,3.37,0,0,0,2.71-1.4c-.32-.28-.68-.61-.59-1.13a2.37,2.37,0,0,1,2.27-1.08Z" />
                        <path class="cls-8"
                            d="M14.41,21.63a.58.58,0,0,0-.38.12,3,3,0,0,1,.42.05,2.69,2.69,0,0,1,.4.14l-.13-.26s-.06-.06-.31-.06" />
                        <path class="cls-4"
                            d="M17.89,15.88a.37.37,0,0,0,0-.13.42.42,0,0,0-.77-.21l.14,0a.38.38,0,0,0,0-.13.41.41,0,0,0-.8-.14l.08,0a.44.44,0,0,0,0-.12.41.41,0,0,0-.42-.4.5.5,0,0,0-.49.33l.08,0s0,0,0,0a.44.44,0,0,0-.47-.4.5.5,0,0,0-.5.36h.14a.46.46,0,0,0-.5-.35.44.44,0,0,0-.47.41v0l.08,0a.47.47,0,0,0-.46-.3.44.44,0,0,0-.46.42s0,.27,0,.27a1.3,1.3,0,0,0-1.08-.43,2,2,0,0,0-.93.27c-.48.29-.89.66-1.49.31-.14.12.08.18.08.3-.37.59.59.15.64.53l-.66.26a.6.6,0,0,0,.17.25L10,17c.17,0,.42-.17.56,0a.41.41,0,0,1-.27.46c.12,0,.22-.06.36,0a.57.57,0,0,0,.31-.36,1.32,1.32,0,0,1,.59,0c.45.19.76-.2,1.08-.41.36.53.78.37,1.33.26-.12-.13-.17-.34-.36-.4a3.94,3.94,0,0,1-.64-.2,1.05,1.05,0,0,1,.31-.15,4.71,4.71,0,0,1,3.11.47,3.3,3.3,0,0,1,1.79,2.7l.14-.26a1.09,1.09,0,0,0,.15-.59.31.31,0,0,0-.16-.28l0,.14a.43.43,0,0,0,.07-.23.4.4,0,0,0-.33-.4l0,.09a.36.36,0,0,0,0-.2.41.41,0,0,0-.4-.41l.08.12a.42.42,0,0,0,0-.2.4.4,0,0,0-.41-.4v.1a.5.5,0,0,0,0-.18.41.41,0,0,0-.42-.4.37.37,0,0,0-.19.05l.11,0a.41.41,0,0,0-.41-.41.5.5,0,0,0-.16,0l0-.17c.42-.09.54-.05,1.15.26a3.75,3.75,0,0,1,1.49,1.52.65.65,0,0,0,.08-.39c0-.19-.09-.26-.27-.31l.09.27a.4.4,0,0,0,.11-.28.41.41,0,0,0-.42-.41h-.08l.15.23a.4.4,0,0,0,.07-.24.41.41,0,0,0-.41-.4.51.51,0,0,0-.19,0l.17.18a.45.45,0,0,0,0-.2.41.41,0,0,0-.41-.4.43.43,0,0,0-.27.11Z" />
                        <path class="cls-9"
                            d="M16.74,15.9l-.23,0a.44.44,0,0,0-.44-.44.52.52,0,0,0-.37.13c0-.23-.16-.36-.36-.36a.51.51,0,0,0-.4.15.39.39,0,0,0-.35-.25.69.69,0,0,0-.48.26.57.57,0,0,0-.48-.22c-.21,0-.5.27-.5.27" />
                        <path class="cls-3"
                            d="M12.05,15.89a.34.34,0,0,0-.32-.15.38.38,0,0,0-.32.16.37.37,0,0,0,.32.16.34.34,0,0,0,.33-.17" />
                        <path class="cls-4"
                            d="M11.74,16a.18.18,0,1,0,0-.36.18.18,0,0,0-.18.18.18.18,0,0,0,.18.17" />
                        <path class="cls-8"
                            d="M10.41,16.72c-.25.06-1,.23-1.36,0S8.84,16,8.95,16s.11.17.23.32.12.16.18.19a1,1,0,0,0,.31.05l.74,0Z" />
                        <path class="cls-10"
                            d="M10.41,16.72c-.25.06-1,.23-1.36,0S8.84,16,8.95,16s.11.17.23.32.12.16.18.19a1,1,0,0,0,.31.05l.74,0Z" />
                        <line class="cls-11" x1="0.4" y1="13.47" x2="23.6" y2="13.47" />
                    </g>
                </g>
            </g>
        </symbol>
        <symbol
            id="ju" viewBox="0 0 24.03 29" preserveAspectRatio="xMinYMid">
            <style>
        .cls-1,.cls-4,.cls-6{fill:none;}.cls-2{clip-path:url(#clip-path);}.cls-3{fill:#fff;}.cls-4,.cls-6{stroke:#171714;}.cls-4{stroke-miterlimit:11.47;stroke-width:0.08px;}.cls-5{fill:#c2172e;}.cls-6{stroke-miterlimit:3.86;stroke-width:0.45px;}</style>
            <clipPath id="clip-path">
                <rect class="cls-1" width="24.03" height="29" />
            </clipPath>
            <g>
                <g>
                    <g class="cls-2">
                        <path class="cls-3"
                            d="M23.6.55H12v0L.42.57v17.2c0,6,5.19,10.94,11.59,10.94S23.6,23.82,23.6,17.77Z" />
                    </g>
                    <line class="cls-4" x1="23.57" y1="12.63" x2="23.57" y2="8.6" />
                    <rect class="cls-5" x="12.01" y="0.4" width="11.59" height="4.02" />
                    <rect class="cls-5" x="12.01" y="8.6" width="11.59" height="4.02" />
                    <g class="cls-2">
                        <path class="cls-5"
                            d="M23.6,16.64H12v4H23.2a10.35,10.35,0,0,0,.41-2.9V16.64Z" />
                        <path class="cls-5" d="M12,28.71a11.83,11.83,0,0,0,9-4H12v4Z" />
                    </g>
                    <rect class="cls-5" x="4.61" y="9.78" width="6.26" height="0.66" />
                    <rect class="cls-5" x="5.51" y="10.69" width="4.46" height="0.66" />
                    <rect class="cls-5" x="5.51" y="8.86" width="4.46" height="0.66" />
                    <polygon class="cls-5"
                        points="6.2 21.66 4.23 23.94 5.74 11.62 7.74 11.62 9.73 11.62 11.25 23.94 9.28 21.66 7.74 26.56 6.18 21.66 6.2 21.66" />
                    <g class="cls-2">
                        <path class="cls-5"
                            d="M6.17,8.62a10.25,10.25,0,0,0,.24-3.75A1.71,1.71,0,0,0,5,3.45c-1.38-.19-1.61,1-1.55.94A1.49,1.49,0,0,1,5,4.46,1.62,1.62,0,0,1,4.9,7,2,2,0,0,1,2.57,7a2,2,0,0,1-.91-1.11,3.43,3.43,0,0,1,.71-3.23A4,4,0,0,1,7,2C9.15,3,9.26,8.63,9.26,8.63l-3.08,0" />
                        <path class="cls-6"
                            d="M12,28.6V.4M.23,17.68V.23H23.81V17.67c0,7.38-6.71,11.1-11.8,11.1C6.52,28.78.22,25.06.23,17.68Z" />
                    </g>
                </g>
            </g>
        </symbol>
        <symbol
            id="lu" viewBox="0 0 24.03 29" preserveAspectRatio="xMinYMid">
            <style>
        .cls-3{fill:#fff;}.cls-4{fill:#2673bd;}.cls-5{fill:none;stroke:#171714;stroke-miterlimit:3.86;stroke-width:0.45px;}</style>
            <g>
                <path class="cls-3" d="M12.06,28.63c6.4,0,11.59-4.9,11.59-10.94V.46H12.07V28.63Z" />
                <path class="cls-4" d="M12.06,28.49V.43H.47V17.67c0,7.32,5.19,11,11.59,11Z" />
                <path class="cls-5"
                    d="M.23,17.67V.23H23.8V17.67c0,7.38-6.71,11.1-11.8,11.1C6.52,28.77.22,25.06.23,17.67Z" />
            </g>
            <path class="cls-3" d="M12.06,28.63c6.4,0,11.59-4.9,11.59-10.94V.46H12.07V28.63Z" />
            <path class="cls-4" d="M12.06,28.49V.43H.47V17.67c0,7.32,5.19,11,11.59,11Z" />
            <path class="cls-5"
                d="M.23,17.67V.23H23.8V17.67c0,7.38-6.71,11.1-11.8,11.1C6.52,28.77.22,25.06.23,17.67Z" />
        </symbol>
    </defs>
</svg>