<?xml version="1.0" encoding="UTF-8" standalone="yes"?>
<svg fill="none" stroke-linecap="square" stroke-miterlimit="10" version="1.1" viewBox="0 0 1068 630" xmlns="http://www.w3.org/2000/svg" xmlns:cc="http://web.resource.org/cc/" xmlns:dc="http://purl.org/dc/elements/1.1/" xmlns:rdf="http://www.w3.org/1999/02/22-rdf-syntax-ns#">
<clipPath id="a">
<path d="m0 0h1068v630h-1068v-630z"/>
</clipPath>
<g clip-path="url(#a)">
<path d="m0 0h1068.9v630.9h-1068.9z" fill="#000" fill-opacity="0"/>
<path d="m-34.835 417.5h1186v254.02h-1186z" fill="#EAF5FB"/>
<path d="m-57.081 421.75c0-41.94 29.825-75.939 66.616-75.939 17.668 0 34.612 8.0006 47.105 22.242 12.493 14.241 19.511 33.557 19.511 53.697 0 41.94-29.825 75.939-66.616 75.939-36.791 0-66.616-33.999-66.616-75.939z" fill="#f9fafc"/>
<path d="m-57.081 421.75c0-41.94 29.825-75.939 66.616-75.939 17.668 0 34.612 8.0006 47.105 22.242 12.493 14.241 19.511 33.557 19.511 53.697 0 41.94-29.825 75.939-66.616 75.939-36.791 0-66.616-33.999-66.616-75.939z" stroke="#f9fafc" stroke-linecap="butt" stroke-linejoin="round" stroke-width="8"/>
<path d="m76.151 421.75c0-41.94 29.825-75.939 66.616-75.939 17.668 0 34.612 8.0006 47.105 22.242 12.493 14.241 19.511 33.557 19.511 53.697 0 41.94-29.825 75.939-66.616 75.939-36.791 0-66.616-33.999-66.616-75.939z" fill="#f9fafc"/>
<path d="m76.151 421.75c0-41.94 29.825-75.939 66.616-75.939 17.668 0 34.612 8.0006 47.105 22.242 12.493 14.241 19.511 33.557 19.511 53.697 0 41.94-29.825 75.939-66.616 75.939-36.791 0-66.616-33.999-66.616-75.939z" stroke="#f9fafc" stroke-linecap="butt" stroke-linejoin="round" stroke-width="8"/>
<path d="m209.38 421.75c0-41.94 29.825-75.939 66.616-75.939 17.668 0 34.612 8.0006 47.105 22.242 12.493 14.241 19.511 33.557 19.511 53.697 0 41.94-29.825 75.939-66.616 75.939-36.791 0-66.616-33.999-66.616-75.939z" fill="#f9fafc"/>
<path d="m209.38 421.75c0-41.94 29.825-75.939 66.616-75.939 17.668 0 34.612 8.0006 47.105 22.242 12.493 14.241 19.511 33.557 19.511 53.697 0 41.94-29.825 75.939-66.616 75.939-36.791 0-66.616-33.999-66.616-75.939z" stroke="#f9fafc" stroke-linecap="butt" stroke-linejoin="round" stroke-width="8"/>
<path d="m342.62 414.62c0-41.94 29.825-75.939 66.616-75.939 17.668 0 34.612 8.0006 47.105 22.242 12.493 14.241 19.511 33.557 19.511 53.697 0 41.94-29.825 75.939-66.616 75.939-36.791 0-66.616-33.999-66.616-75.939z" fill="#f9fafc"/>
<path d="m342.62 414.62c0-41.94 29.825-75.939 66.616-75.939 17.668 0 34.612 8.0006 47.105 22.242 12.493 14.241 19.511 33.557 19.511 53.697 0 41.94-29.825 75.939-66.616 75.939-36.791 0-66.616-33.999-66.616-75.939z" stroke="#f9fafc" stroke-linecap="butt" stroke-linejoin="round" stroke-width="8"/>
<path d="m475.85 414.62c0-41.94 29.825-75.939 66.616-75.939 17.668 0 34.612 8.0006 47.105 22.242 12.493 14.241 19.511 33.557 19.511 53.697 0 41.94-29.825 75.939-66.616 75.939-36.791 0-66.616-33.999-66.616-75.939z" fill="#f9fafc"/>
<path d="m475.85 414.62c0-41.94 29.825-75.939 66.616-75.939 17.668 0 34.612 8.0006 47.105 22.242 12.493 14.241 19.511 33.557 19.511 53.697 0 41.94-29.825 75.939-66.616 75.939-36.791 0-66.616-33.999-66.616-75.939z" stroke="#f9fafc" stroke-linecap="butt" stroke-linejoin="round" stroke-width="8"/>
<path d="m609.08 414.62c0-41.94 29.825-75.939 66.616-75.939 17.668 0 34.612 8.0006 47.105 22.242 12.493 14.241 19.511 33.557 19.511 53.697 0 41.94-29.825 75.939-66.616 75.939-36.791 0-66.616-33.999-66.616-75.939z" fill="#f9fafc"/>
<path d="m609.08 414.62c0-41.94 29.825-75.939 66.616-75.939 17.668 0 34.612 8.0006 47.105 22.242 12.493 14.241 19.511 33.557 19.511 53.697 0 41.94-29.825 75.939-66.616 75.939-36.791 0-66.616-33.999-66.616-75.939z" stroke="#f9fafc" stroke-linecap="butt" stroke-linejoin="round" stroke-width="8"/>
<path d="m875.54 414.62c0-41.94 29.825-75.939 66.616-75.939 17.668 0 34.612 8.0006 47.105 22.242 12.493 14.241 19.511 33.557 19.511 53.697 0 41.94-29.825 75.939-66.616 75.939-36.791 0-66.616-33.999-66.616-75.939z" fill="#f9fafc"/>
<path d="m875.54 414.62c0-41.94 29.825-75.939 66.616-75.939 17.668 0 34.612 8.0006 47.105 22.242 12.493 14.241 19.511 33.557 19.511 53.697 0 41.94-29.825 75.939-66.616 75.939-36.791 0-66.616-33.999-66.616-75.939z" stroke="#f9fafc" stroke-linecap="butt" stroke-linejoin="round" stroke-width="8"/>
<path d="m1008.8 414.62c0-41.94 29.825-75.939 66.616-75.939 17.668 0 34.612 8.0006 47.105 22.242 12.493 14.241 19.511 33.557 19.511 53.697 0 41.94-29.825 75.939-66.616 75.939-36.791 0-66.616-33.999-66.616-75.939z" fill="#f9fafc"/>
<path d="m1008.8 414.62c0-41.94 29.825-75.939 66.616-75.939 17.668 0 34.612 8.0006 47.105 22.242 12.493 14.241 19.511 33.557 19.511 53.697 0 41.94-29.825 75.939-66.616 75.939-36.791 0-66.616-33.999-66.616-75.939z" stroke="#f9fafc" stroke-linecap="butt" stroke-linejoin="round" stroke-width="8"/>
<path d="m742.31 414.62c0-41.94 29.825-75.939 66.616-75.939 17.668 0 34.612 8.0006 47.105 22.242 12.493 14.241 19.511 33.557 19.511 53.697 0 41.94-29.825 75.939-66.616 75.939-36.791 0-66.616-33.999-66.616-75.939z" fill="#f9fafc"/>
<path d="m742.31 414.62c0-41.94 29.825-75.939 66.616-75.939 17.668 0 34.612 8.0006 47.105 22.242 12.493 14.241 19.511 33.557 19.511 53.697 0 41.94-29.825 75.939-66.616 75.939-36.791 0-66.616-33.999-66.616-75.939z" stroke="#f9fafc" stroke-linecap="butt" stroke-linejoin="round" stroke-width="8"/>
<path d="m11.291 321.06c0-41.94 29.518-75.939 65.93-75.939 17.486 0 34.255 8.0007 46.619 22.242 12.364 14.241 19.31 33.557 19.31 53.697 0 41.94-29.518 75.939-65.93 75.939-36.412 0-65.93-33.999-65.93-75.939z" fill="#EAF5FB"/>
<path d="m11.291 321.06c0-41.94 29.518-75.939 65.93-75.939 17.486 0 34.255 8.0007 46.619 22.242 12.364 14.241 19.31 33.557 19.31 53.697 0 41.94-29.518 75.939-65.93 75.939-36.412 0-65.93-33.999-65.93-75.939z" stroke="#EAF5FB" stroke-linecap="butt" stroke-linejoin="round" stroke-width="8"/>
<path d="m143.15 321.06c0-41.94 29.518-75.939 65.93-75.939 17.486 0 34.255 8.0007 46.619 22.242 12.364 14.241 19.31 33.557 19.31 53.697 0 41.94-29.518 75.939-65.93 75.939s-65.93-33.999-65.93-75.939z" fill="#EAF5FB"/>
<path d="m143.15 321.06c0-41.94 29.518-75.939 65.93-75.939 17.486 0 34.255 8.0007 46.619 22.242 12.364 14.241 19.31 33.557 19.31 53.697 0 41.94-29.518 75.939-65.93 75.939s-65.93-33.999-65.93-75.939z" stroke="#EAF5FB" stroke-linecap="butt" stroke-linejoin="round" stroke-width="8"/>
<path d="m275.01 321.06c0-41.94 29.518-75.939 65.93-75.939 17.486 0 34.255 8.0007 46.619 22.242 12.364 14.241 19.31 33.557 19.31 53.697 0 41.94-29.518 75.939-65.93 75.939-36.412 0-65.93-33.999-65.93-75.939z" fill="#EAF5FB"/>
<path d="m275.01 321.06c0-41.94 29.518-75.939 65.93-75.939 17.486 0 34.255 8.0007 46.619 22.242 12.364 14.241 19.31 33.557 19.31 53.697 0 41.94-29.518 75.939-65.93 75.939-36.412 0-65.93-33.999-65.93-75.939z" stroke="#EAF5FB" stroke-linecap="butt" stroke-linejoin="round" stroke-width="8"/>
<path d="m406.87 313.93c0-41.94 29.518-75.939 65.93-75.939 17.486 0 34.255 8.0007 46.619 22.242 12.364 14.241 19.31 33.557 19.31 53.697 0 41.94-29.518 75.939-65.93 75.939s-65.93-33.999-65.93-75.939z" fill="#EAF5FB"/>
<path d="m406.87 313.93c0-41.94 29.518-75.939 65.93-75.939 17.486 0 34.255 8.0007 46.619 22.242 12.364 14.241 19.31 33.557 19.31 53.697 0 41.94-29.518 75.939-65.93 75.939s-65.93-33.999-65.93-75.939z" stroke="#EAF5FB" stroke-linecap="butt" stroke-linejoin="round" stroke-width="8"/>
<path d="m538.73 313.93c0-41.94 29.518-75.939 65.93-75.939 17.486 0 34.255 8.0007 46.619 22.242 12.364 14.241 19.31 33.557 19.31 53.697 0 41.94-29.518 75.939-65.93 75.939-36.412 0-65.93-33.999-65.93-75.939z" fill="#EAF5FB"/>
<path d="m538.73 313.93c0-41.94 29.518-75.939 65.93-75.939 17.486 0 34.255 8.0007 46.619 22.242 12.364 14.241 19.31 33.557 19.31 53.697 0 41.94-29.518 75.939-65.93 75.939-36.412 0-65.93-33.999-65.93-75.939z" stroke="#EAF5FB" stroke-linecap="butt" stroke-linejoin="round" stroke-width="8"/>
<path d="m670.59 313.93c0-41.94 29.518-75.939 65.93-75.939 17.486 0 34.255 8.0007 46.619 22.242 12.364 14.241 19.31 33.557 19.31 53.697 0 41.94-29.518 75.939-65.93 75.939-36.412 0-65.93-33.999-65.93-75.939z" fill="#EAF5FB"/>
<path d="m670.59 313.93c0-41.94 29.518-75.939 65.93-75.939 17.486 0 34.255 8.0007 46.619 22.242 12.364 14.241 19.31 33.557 19.31 53.697 0 41.94-29.518 75.939-65.93 75.939-36.412 0-65.93-33.999-65.93-75.939z" stroke="#EAF5FB" stroke-linecap="butt" stroke-linejoin="round" stroke-width="8"/>
<path d="m934.3 313.93c0-41.94 29.518-75.939 65.93-75.939 17.486 0 34.255 8.0007 46.619 22.242 12.364 14.241 19.31 33.557 19.31 53.697 0 41.94-29.518 75.939-65.93 75.939s-65.93-33.999-65.93-75.939z" fill="#EAF5FB"/>
<path d="m934.3 313.93c0-41.94 29.518-75.939 65.93-75.939 17.486 0 34.255 8.0007 46.619 22.242 12.364 14.241 19.31 33.557 19.31 53.697 0 41.94-29.518 75.939-65.93 75.939s-65.93-33.999-65.93-75.939z" stroke="#EAF5FB" stroke-linecap="butt" stroke-linejoin="round" stroke-width="8"/>
<path d="m1066.2 313.93c0-41.94 29.518-75.939 65.93-75.939 17.486 0 34.255 8.0007 46.619 22.242 12.364 14.241 19.31 33.557 19.31 53.697 0 41.94-29.518 75.939-65.93 75.939-36.412 0-65.93-33.999-65.93-75.939z" fill="#EAF5FB"/>
<path d="m1066.2 313.93c0-41.94 29.518-75.939 65.93-75.939 17.486 0 34.255 8.0007 46.619 22.242 12.364 14.241 19.31 33.557 19.31 53.697 0 41.94-29.518 75.939-65.93 75.939-36.412 0-65.93-33.999-65.93-75.939z" stroke="#EAF5FB" stroke-linecap="butt" stroke-linejoin="round" stroke-width="8"/>
<path d="m802.45 313.93c0-41.94 29.518-75.939 65.93-75.939 17.486 0 34.255 8.0007 46.619 22.242 12.364 14.241 19.31 33.557 19.31 53.697 0 41.94-29.518 75.939-65.93 75.939-36.412 0-65.93-33.999-65.93-75.939z" fill="#EAF5FB"/>
<path d="m802.45 313.93c0-41.94 29.518-75.939 65.93-75.939 17.486 0 34.255 8.0007 46.619 22.242 12.364 14.241 19.31 33.557 19.31 53.697 0 41.94-29.518 75.939-65.93 75.939-36.412 0-65.93-33.999-65.93-75.939z" stroke="#EAF5FB" stroke-linecap="butt" stroke-linejoin="round" stroke-width="8"/>
<path d="m-20.831 252.75c0-41.94 29.825-75.939 66.616-75.939 17.668 0 34.612 8.0007 47.105 22.242 12.493 14.241 19.511 33.557 19.511 53.697 0 41.94-29.825 75.939-66.616 75.939-36.791 0-66.616-33.999-66.616-75.939z" fill="#f9fafc"/>
<path d="m-20.831 252.75c0-41.94 29.825-75.939 66.616-75.939 17.668 0 34.612 8.0007 47.105 22.242 12.493 14.241 19.511 33.557 19.511 53.697 0 41.94-29.825 75.939-66.616 75.939-36.791 0-66.616-33.999-66.616-75.939z" stroke="#f9fafc" stroke-linecap="butt" stroke-linejoin="round" stroke-width="8"/>
<path d="m112.4 252.75c0-41.94 29.825-75.939 66.616-75.939 17.668 0 34.612 8.0007 47.105 22.242 12.493 14.241 19.511 33.557 19.511 53.697 0 41.94-29.825 75.939-66.616 75.939-36.791 0-66.616-33.999-66.616-75.939z" fill="#f9fafc"/>
<path d="m112.4 252.75c0-41.94 29.825-75.939 66.616-75.939 17.668 0 34.612 8.0007 47.105 22.242 12.493 14.241 19.511 33.557 19.511 53.697 0 41.94-29.825 75.939-66.616 75.939-36.791 0-66.616-33.999-66.616-75.939z" stroke="#f9fafc" stroke-linecap="butt" stroke-linejoin="round" stroke-width="8"/>
<path d="m245.63 252.75c0-41.94 29.825-75.939 66.616-75.939 17.668 0 34.612 8.0007 47.105 22.242 12.493 14.241 19.511 33.557 19.511 53.697 0 41.94-29.825 75.939-66.616 75.939-36.791 0-66.616-33.999-66.616-75.939z" fill="#f9fafc"/>
<path d="m245.63 252.75c0-41.94 29.825-75.939 66.616-75.939 17.668 0 34.612 8.0007 47.105 22.242 12.493 14.241 19.511 33.557 19.511 53.697 0 41.94-29.825 75.939-66.616 75.939-36.791 0-66.616-33.999-66.616-75.939z" stroke="#f9fafc" stroke-linecap="butt" stroke-linejoin="round" stroke-width="8"/>
<path d="m378.87 245.62c0-41.94 29.825-75.939 66.616-75.939 17.668 0 34.612 8.0007 47.105 22.242 12.493 14.241 19.511 33.557 19.511 53.697 0 41.94-29.825 75.939-66.616 75.939-36.791 0-66.616-33.999-66.616-75.939z" fill="#f9fafc"/>
<path d="m378.87 245.62c0-41.94 29.825-75.939 66.616-75.939 17.668 0 34.612 8.0007 47.105 22.242 12.493 14.241 19.511 33.557 19.511 53.697 0 41.94-29.825 75.939-66.616 75.939-36.791 0-66.616-33.999-66.616-75.939z" stroke="#f9fafc" stroke-linecap="butt" stroke-linejoin="round" stroke-width="8"/>
<path d="m512.1 245.62c0-41.94 29.825-75.939 66.616-75.939 17.668 0 34.612 8.0007 47.105 22.242 12.493 14.241 19.511 33.557 19.511 53.697 0 41.94-29.825 75.939-66.616 75.939-36.791 0-66.616-33.999-66.616-75.939z" fill="#f9fafc"/>
<path d="m512.1 245.62c0-41.94 29.825-75.939 66.616-75.939 17.668 0 34.612 8.0007 47.105 22.242 12.493 14.241 19.511 33.557 19.511 53.697 0 41.94-29.825 75.939-66.616 75.939-36.791 0-66.616-33.999-66.616-75.939z" stroke="#f9fafc" stroke-linecap="butt" stroke-linejoin="round" stroke-width="8"/>
<path d="m645.33 245.62c0-41.94 29.825-75.939 66.616-75.939 17.668 0 34.612 8.0007 47.105 22.242 12.493 14.241 19.511 33.557 19.511 53.697 0 41.94-29.825 75.939-66.616 75.939-36.791 0-66.616-33.999-66.616-75.939z" fill="#f9fafc"/>
<path d="m645.33 245.62c0-41.94 29.825-75.939 66.616-75.939 17.668 0 34.612 8.0007 47.105 22.242 12.493 14.241 19.511 33.557 19.511 53.697 0 41.94-29.825 75.939-66.616 75.939-36.791 0-66.616-33.999-66.616-75.939z" stroke="#f9fafc" stroke-linecap="butt" stroke-linejoin="round" stroke-width="8"/>
<path d="m911.79 245.62c0-41.94 29.825-75.939 66.616-75.939 17.668 0 34.612 8.0007 47.105 22.242 12.493 14.241 19.511 33.557 19.511 53.697 0 41.94-29.825 75.939-66.616 75.939-36.791 0-66.616-33.999-66.616-75.939z" fill="#f9fafc"/>
<path d="m911.79 245.62c0-41.94 29.825-75.939 66.616-75.939 17.668 0 34.612 8.0007 47.105 22.242 12.493 14.241 19.511 33.557 19.511 53.697 0 41.94-29.825 75.939-66.616 75.939-36.791 0-66.616-33.999-66.616-75.939z" stroke="#f9fafc" stroke-linecap="butt" stroke-linejoin="round" stroke-width="8"/>
<path d="m1045 245.62c0-41.94 29.825-75.939 66.616-75.939 17.668 0 34.612 8.0007 47.105 22.242 12.493 14.241 19.511 33.557 19.511 53.697 0 41.94-29.825 75.939-66.616 75.939-36.791 0-66.616-33.999-66.616-75.939z" fill="#f9fafc"/>
<path d="m1045 245.62c0-41.94 29.825-75.939 66.616-75.939 17.668 0 34.612 8.0007 47.105 22.242 12.493 14.241 19.511 33.557 19.511 53.697 0 41.94-29.825 75.939-66.616 75.939-36.791 0-66.616-33.999-66.616-75.939z" stroke="#f9fafc" stroke-linecap="butt" stroke-linejoin="round" stroke-width="8"/>
<path d="m778.56 245.62c0-41.94 29.825-75.939 66.616-75.939 17.668 0 34.612 8.0007 47.105 22.242 12.493 14.241 19.511 33.557 19.511 53.697 0 41.94-29.825 75.939-66.616 75.939-36.791 0-66.616-33.999-66.616-75.939z" fill="#f9fafc"/>
<path d="m778.56 245.62c0-41.94 29.825-75.939 66.616-75.939 17.668 0 34.612 8.0007 47.105 22.242 12.493 14.241 19.511 33.557 19.511 53.697 0 41.94-29.825 75.939-66.616 75.939-36.791 0-66.616-33.999-66.616-75.939z" stroke="#f9fafc" stroke-linecap="butt" stroke-linejoin="round" stroke-width="8"/>
<path d="m-78.904 174.51c0-41.94 29.518-75.939 65.93-75.939 17.486 0 34.255 8.0007 46.619 22.242 12.364 14.241 19.31 33.557 19.31 53.697 0 41.94-29.518 75.939-65.93 75.939-36.412 0-65.93-33.999-65.93-75.939z" fill="#EAF5FB"/>
<path d="m-78.904 174.51c0-41.94 29.518-75.939 65.93-75.939 17.486 0 34.255 8.0007 46.619 22.242 12.364 14.241 19.31 33.557 19.31 53.697 0 41.94-29.518 75.939-65.93 75.939-36.412 0-65.93-33.999-65.93-75.939z" stroke="#EAF5FB" stroke-linecap="butt" stroke-linejoin="round" stroke-width="8"/>
<path d="m52.955 174.51c0-41.94 29.518-75.939 65.93-75.939 17.486 0 34.255 8.0007 46.619 22.242 12.364 14.241 19.31 33.557 19.31 53.697 0 41.94-29.518 75.939-65.93 75.939-36.412 0-65.93-33.999-65.93-75.939z" fill="#EAF5FB"/>
<path d="m52.955 174.51c0-41.94 29.518-75.939 65.93-75.939 17.486 0 34.255 8.0007 46.619 22.242 12.364 14.241 19.31 33.557 19.31 53.697 0 41.94-29.518 75.939-65.93 75.939-36.412 0-65.93-33.999-65.93-75.939z" stroke="#EAF5FB" stroke-linecap="butt" stroke-linejoin="round" stroke-width="8"/>
<path d="m184.81 174.51c0-41.94 29.518-75.939 65.93-75.939 17.486 0 34.255 8.0007 46.619 22.242 12.364 14.241 19.31 33.557 19.31 53.697 0 41.94-29.518 75.939-65.93 75.939-36.412 0-65.93-33.999-65.93-75.939z" fill="#EAF5FB"/>
<path d="m184.81 174.51c0-41.94 29.518-75.939 65.93-75.939 17.486 0 34.255 8.0007 46.619 22.242 12.364 14.241 19.31 33.557 19.31 53.697 0 41.94-29.518 75.939-65.93 75.939-36.412 0-65.93-33.999-65.93-75.939z" stroke="#EAF5FB" stroke-linecap="butt" stroke-linejoin="round" stroke-width="8"/>
<path d="m316.67 167.39c0-41.94 29.518-75.939 65.93-75.939 17.486 0 34.255 8.0007 46.619 22.242 12.364 14.241 19.31 33.557 19.31 53.697 0 41.94-29.518 75.939-65.93 75.939-36.412 0-65.93-33.999-65.93-75.939z" fill="#EAF5FB"/>
<path d="m316.67 167.39c0-41.94 29.518-75.939 65.93-75.939 17.486 0 34.255 8.0007 46.619 22.242 12.364 14.241 19.31 33.557 19.31 53.697 0 41.94-29.518 75.939-65.93 75.939-36.412 0-65.93-33.999-65.93-75.939z" stroke="#EAF5FB" stroke-linecap="butt" stroke-linejoin="round" stroke-width="8"/>
<path d="m448.53 167.39c0-41.94 29.518-75.939 65.93-75.939 17.486 0 34.255 8.0007 46.619 22.242 12.364 14.241 19.31 33.557 19.31 53.697 0 41.94-29.518 75.939-65.93 75.939-36.412 0-65.93-33.999-65.93-75.939z" fill="#EAF5FB"/>
<path d="m448.53 167.39c0-41.94 29.518-75.939 65.93-75.939 17.486 0 34.255 8.0007 46.619 22.242 12.364 14.241 19.31 33.557 19.31 53.697 0 41.94-29.518 75.939-65.93 75.939-36.412 0-65.93-33.999-65.93-75.939z" stroke="#EAF5FB" stroke-linecap="butt" stroke-linejoin="round" stroke-width="8"/>
<path d="m580.39 167.39c0-41.94 29.518-75.939 65.93-75.939 17.486 0 34.255 8.0007 46.619 22.242 12.364 14.241 19.31 33.557 19.31 53.697 0 41.94-29.518 75.939-65.93 75.939-36.412 0-65.93-33.999-65.93-75.939z" fill="#EAF5FB"/>
<path d="m580.39 167.39c0-41.94 29.518-75.939 65.93-75.939 17.486 0 34.255 8.0007 46.619 22.242 12.364 14.241 19.31 33.557 19.31 53.697 0 41.94-29.518 75.939-65.93 75.939-36.412 0-65.93-33.999-65.93-75.939z" stroke="#EAF5FB" stroke-linecap="butt" stroke-linejoin="round" stroke-width="8"/>
<path d="m844.11 167.39c0-41.94 29.518-75.939 65.93-75.939 17.486 0 34.255 8.0007 46.619 22.242 12.364 14.241 19.31 33.557 19.31 53.697 0 41.94-29.518 75.939-65.93 75.939-36.412 0-65.93-33.999-65.93-75.939z" fill="#EAF5FB"/>
<path d="m844.11 167.39c0-41.94 29.518-75.939 65.93-75.939 17.486 0 34.255 8.0007 46.619 22.242 12.364 14.241 19.31 33.557 19.31 53.697 0 41.94-29.518 75.939-65.93 75.939-36.412 0-65.93-33.999-65.93-75.939z" stroke="#EAF5FB" stroke-linecap="butt" stroke-linejoin="round" stroke-width="8"/>
<path d="m975.97 167.39c0-41.94 29.518-75.939 65.93-75.939 17.486 0 34.255 8.0007 46.619 22.242 12.364 14.241 19.31 33.557 19.31 53.697 0 41.94-29.518 75.939-65.93 75.939s-65.93-33.999-65.93-75.939z" fill="#EAF5FB"/>
<path d="m975.97 167.39c0-41.94 29.518-75.939 65.93-75.939 17.486 0 34.255 8.0007 46.619 22.242 12.364 14.241 19.31 33.557 19.31 53.697 0 41.94-29.518 75.939-65.93 75.939s-65.93-33.999-65.93-75.939z" stroke="#EAF5FB" stroke-linecap="butt" stroke-linejoin="round" stroke-width="8"/>
<path d="m712.25 167.39c0-41.94 29.518-75.939 65.93-75.939 17.486 0 34.255 8.0007 46.619 22.242 12.364 14.241 19.31 33.557 19.31 53.697 0 41.94-29.518 75.939-65.93 75.939-36.412 0-65.93-33.999-65.93-75.939z" fill="#EAF5FB"/>
<path d="m712.25 167.39c0-41.94 29.518-75.939 65.93-75.939 17.486 0 34.255 8.0007 46.619 22.242 12.364 14.241 19.31 33.557 19.31 53.697 0 41.94-29.518 75.939-65.93 75.939-36.412 0-65.93-33.999-65.93-75.939z" stroke="#EAF5FB" stroke-linecap="butt" stroke-linejoin="round" stroke-width="8"/>
<path d="m-20.831 99.224c0-41.94 29.825-75.939 66.616-75.939 17.668 0 34.612 8.0007 47.105 22.242 12.493 14.241 19.511 33.557 19.511 53.697 0 41.94-29.825 75.939-66.616 75.939-36.791 0-66.616-33.999-66.616-75.939z" fill="#f9fafc"/>
<path d="m-20.831 99.224c0-41.94 29.825-75.939 66.616-75.939 17.668 0 34.612 8.0007 47.105 22.242 12.493 14.241 19.511 33.557 19.511 53.697 0 41.94-29.825 75.939-66.616 75.939-36.791 0-66.616-33.999-66.616-75.939z" stroke="#f9fafc" stroke-linecap="butt" stroke-linejoin="round" stroke-width="8"/>
<path d="m112.4 99.224c0-41.94 29.825-75.939 66.616-75.939 17.668 0 34.612 8.0007 47.105 22.242 12.493 14.241 19.511 33.557 19.511 53.697 0 41.94-29.825 75.939-66.616 75.939-36.791 0-66.616-33.999-66.616-75.939z" fill="#f9fafc"/>
<path d="m112.4 99.224c0-41.94 29.825-75.939 66.616-75.939 17.668 0 34.612 8.0007 47.105 22.242 12.493 14.241 19.511 33.557 19.511 53.697 0 41.94-29.825 75.939-66.616 75.939-36.791 0-66.616-33.999-66.616-75.939z" stroke="#f9fafc" stroke-linecap="butt" stroke-linejoin="round" stroke-width="8"/>
<path d="m245.63 99.224c0-41.94 29.825-75.939 66.616-75.939 17.668 0 34.612 8.0007 47.105 22.242 12.493 14.241 19.511 33.557 19.511 53.697 0 41.94-29.825 75.939-66.616 75.939-36.791 0-66.616-33.999-66.616-75.939z" fill="#f9fafc"/>
<path d="m245.63 99.224c0-41.94 29.825-75.939 66.616-75.939 17.668 0 34.612 8.0007 47.105 22.242 12.493 14.241 19.511 33.557 19.511 53.697 0 41.94-29.825 75.939-66.616 75.939-36.791 0-66.616-33.999-66.616-75.939z" stroke="#f9fafc" stroke-linecap="butt" stroke-linejoin="round" stroke-width="8"/>
<path d="m378.87 92.098c0-41.94 29.825-75.939 66.616-75.939 17.668 0 34.612 8.0007 47.105 22.242s19.511 33.557 19.511 53.697c0 41.94-29.825 75.939-66.616 75.939-36.791 0-66.616-33.999-66.616-75.939z" fill="#f9fafc"/>
<path d="m378.87 92.098c0-41.94 29.825-75.939 66.616-75.939 17.668 0 34.612 8.0007 47.105 22.242s19.511 33.557 19.511 53.697c0 41.94-29.825 75.939-66.616 75.939-36.791 0-66.616-33.999-66.616-75.939z" stroke="#f9fafc" stroke-linecap="butt" stroke-linejoin="round" stroke-width="8"/>
<path d="m512.1 92.098c0-41.94 29.825-75.939 66.616-75.939 17.668 0 34.612 8.0007 47.105 22.242s19.511 33.557 19.511 53.697c0 41.94-29.825 75.939-66.616 75.939-36.791 0-66.616-33.999-66.616-75.939z" fill="#f9fafc"/>
<path d="m512.1 92.098c0-41.94 29.825-75.939 66.616-75.939 17.668 0 34.612 8.0007 47.105 22.242s19.511 33.557 19.511 53.697c0 41.94-29.825 75.939-66.616 75.939-36.791 0-66.616-33.999-66.616-75.939z" stroke="#f9fafc" stroke-linecap="butt" stroke-linejoin="round" stroke-width="8"/>
<path d="m645.33 92.098c0-41.94 29.825-75.939 66.616-75.939 17.668 0 34.612 8.0007 47.105 22.242 12.493 14.241 19.511 33.557 19.511 53.697 0 41.94-29.825 75.939-66.616 75.939-36.791 0-66.616-33.999-66.616-75.939z" fill="#f9fafc"/>
<path d="m645.33 92.098c0-41.94 29.825-75.939 66.616-75.939 17.668 0 34.612 8.0007 47.105 22.242 12.493 14.241 19.511 33.557 19.511 53.697 0 41.94-29.825 75.939-66.616 75.939-36.791 0-66.616-33.999-66.616-75.939z" stroke="#f9fafc" stroke-linecap="butt" stroke-linejoin="round" stroke-width="8"/>
<path d="m911.79 92.098c0-41.94 29.825-75.939 66.616-75.939 17.668 0 34.612 8.0007 47.105 22.242s19.511 33.557 19.511 53.697c0 41.94-29.825 75.939-66.616 75.939-36.791 0-66.616-33.999-66.616-75.939z" fill="#f9fafc"/>
<path d="m911.79 92.098c0-41.94 29.825-75.939 66.616-75.939 17.668 0 34.612 8.0007 47.105 22.242s19.511 33.557 19.511 53.697c0 41.94-29.825 75.939-66.616 75.939-36.791 0-66.616-33.999-66.616-75.939z" stroke="#f9fafc" stroke-linecap="butt" stroke-linejoin="round" stroke-width="8"/>
<path d="m1045 92.098c0-41.94 29.825-75.939 66.616-75.939 17.668 0 34.612 8.0007 47.105 22.242s19.511 33.557 19.511 53.697c0 41.94-29.825 75.939-66.616 75.939-36.791 0-66.616-33.999-66.616-75.939z" fill="#f9fafc"/>
<path d="m1045 92.098c0-41.94 29.825-75.939 66.616-75.939 17.668 0 34.612 8.0007 47.105 22.242s19.511 33.557 19.511 53.697c0 41.94-29.825 75.939-66.616 75.939-36.791 0-66.616-33.999-66.616-75.939z" stroke="#f9fafc" stroke-linecap="butt" stroke-linejoin="round" stroke-width="8"/>
<path d="m778.56 92.098c0-41.94 29.825-75.939 66.616-75.939 17.668 0 34.612 8.0007 47.105 22.242s19.511 33.557 19.511 53.697c0 41.94-29.825 75.939-66.616 75.939-36.791 0-66.616-33.999-66.616-75.939z" fill="#f9fafc"/>
<path d="m778.56 92.098c0-41.94 29.825-75.939 66.616-75.939 17.668 0 34.612 8.0007 47.105 22.242s19.511 33.557 19.511 53.697c0 41.94-29.825 75.939-66.616 75.939-36.791 0-66.616-33.999-66.616-75.939z" stroke="#f9fafc" stroke-linecap="butt" stroke-linejoin="round" stroke-width="8"/>
<path d="m-78.904 25.166c0-41.94 29.518-75.939 65.93-75.939 17.486 0 34.255 8.0007 46.619 22.242 12.364 14.241 19.31 33.557 19.31 53.697 0 41.94-29.518 75.939-65.93 75.939-36.412 0-65.93-33.999-65.93-75.939z" fill="#EAF5FB"/>
<path d="m-78.904 25.166c0-41.94 29.518-75.939 65.93-75.939 17.486 0 34.255 8.0007 46.619 22.242 12.364 14.241 19.31 33.557 19.31 53.697 0 41.94-29.518 75.939-65.93 75.939-36.412 0-65.93-33.999-65.93-75.939z" stroke="#EAF5FB" stroke-linecap="butt" stroke-linejoin="round" stroke-width="8"/>
<path d="m52.955 25.166c0-41.94 29.518-75.939 65.93-75.939 17.486 0 34.255 8.0007 46.619 22.242 12.364 14.241 19.31 33.557 19.31 53.697 0 41.94-29.518 75.939-65.93 75.939-36.412 0-65.93-33.999-65.93-75.939z" fill="#EAF5FB"/>
<path d="m52.955 25.166c0-41.94 29.518-75.939 65.93-75.939 17.486 0 34.255 8.0007 46.619 22.242 12.364 14.241 19.31 33.557 19.31 53.697 0 41.94-29.518 75.939-65.93 75.939-36.412 0-65.93-33.999-65.93-75.939z" stroke="#EAF5FB" stroke-linecap="butt" stroke-linejoin="round" stroke-width="8"/>
<path d="m184.81 25.166c0-41.94 29.518-75.939 65.93-75.939 17.486 0 34.255 8.0007 46.619 22.242 12.364 14.241 19.31 33.557 19.31 53.697 0 41.94-29.518 75.939-65.93 75.939-36.412 0-65.93-33.999-65.93-75.939z" fill="#EAF5FB"/>
<path d="m184.81 25.166c0-41.94 29.518-75.939 65.93-75.939 17.486 0 34.255 8.0007 46.619 22.242 12.364 14.241 19.31 33.557 19.31 53.697 0 41.94-29.518 75.939-65.93 75.939-36.412 0-65.93-33.999-65.93-75.939z" stroke="#EAF5FB" stroke-linecap="butt" stroke-linejoin="round" stroke-width="8"/>
<path d="m316.67 18.041c0-41.94 29.518-75.939 65.93-75.939 17.486 0 34.255 8.0007 46.619 22.242 12.364 14.241 19.31 33.557 19.31 53.697 0 41.94-29.518 75.939-65.93 75.939-36.412 0-65.93-33.999-65.93-75.939z" fill="#EAF5FB"/>
<path d="m316.67 18.041c0-41.94 29.518-75.939 65.93-75.939 17.486 0 34.255 8.0007 46.619 22.242 12.364 14.241 19.31 33.557 19.31 53.697 0 41.94-29.518 75.939-65.93 75.939-36.412 0-65.93-33.999-65.93-75.939z" stroke="#EAF5FB" stroke-linecap="butt" stroke-linejoin="round" stroke-width="8"/>
<path d="m448.53 18.041c0-41.94 29.518-75.939 65.93-75.939 17.486 0 34.255 8.0007 46.619 22.242 12.364 14.241 19.31 33.557 19.31 53.697 0 41.94-29.518 75.939-65.93 75.939-36.412 0-65.93-33.999-65.93-75.939z" fill="#EAF5FB"/>
<path d="m448.53 18.041c0-41.94 29.518-75.939 65.93-75.939 17.486 0 34.255 8.0007 46.619 22.242 12.364 14.241 19.31 33.557 19.31 53.697 0 41.94-29.518 75.939-65.93 75.939-36.412 0-65.93-33.999-65.93-75.939z" stroke="#EAF5FB" stroke-linecap="butt" stroke-linejoin="round" stroke-width="8"/>
<path d="m580.39 18.041c0-41.94 29.518-75.939 65.93-75.939 17.486 0 34.255 8.0007 46.619 22.242 12.364 14.241 19.31 33.557 19.31 53.697 0 41.94-29.518 75.939-65.93 75.939-36.412 0-65.93-33.999-65.93-75.939z" fill="#EAF5FB"/>
<path d="m580.39 18.041c0-41.94 29.518-75.939 65.93-75.939 17.486 0 34.255 8.0007 46.619 22.242 12.364 14.241 19.31 33.557 19.31 53.697 0 41.94-29.518 75.939-65.93 75.939-36.412 0-65.93-33.999-65.93-75.939z" stroke="#EAF5FB" stroke-linecap="butt" stroke-linejoin="round" stroke-width="8"/>
<path d="m844.11 18.041c0-41.94 29.518-75.939 65.93-75.939 17.486 0 34.255 8.0007 46.619 22.242 12.364 14.241 19.31 33.557 19.31 53.697 0 41.94-29.518 75.939-65.93 75.939-36.412 0-65.93-33.999-65.93-75.939z" fill="#EAF5FB"/>
<path d="m844.11 18.041c0-41.94 29.518-75.939 65.93-75.939 17.486 0 34.255 8.0007 46.619 22.242 12.364 14.241 19.31 33.557 19.31 53.697 0 41.94-29.518 75.939-65.93 75.939-36.412 0-65.93-33.999-65.93-75.939z" stroke="#EAF5FB" stroke-linecap="butt" stroke-linejoin="round" stroke-width="8"/>
<path d="m975.97 18.041c0-41.94 29.518-75.939 65.93-75.939 17.486 0 34.255 8.0007 46.619 22.242 12.364 14.241 19.31 33.557 19.31 53.697 0 41.94-29.518 75.939-65.93 75.939s-65.93-33.999-65.93-75.939z" fill="#EAF5FB"/>
<path d="m975.97 18.041c0-41.94 29.518-75.939 65.93-75.939 17.486 0 34.255 8.0007 46.619 22.242 12.364 14.241 19.31 33.557 19.31 53.697 0 41.94-29.518 75.939-65.93 75.939s-65.93-33.999-65.93-75.939z" stroke="#EAF5FB" stroke-linecap="butt" stroke-linejoin="round" stroke-width="8"/>
<path d="m712.25 18.041c0-41.94 29.518-75.939 65.93-75.939 17.486 0 34.255 8.0007 46.619 22.242 12.364 14.241 19.31 33.557 19.31 53.697 0 41.94-29.518 75.939-65.93 75.939-36.412 0-65.93-33.999-65.93-75.939z" fill="#EAF5FB"/>
<path d="m712.25 18.041c0-41.94 29.518-75.939 65.93-75.939 17.486 0 34.255 8.0007 46.619 22.242 12.364 14.241 19.31 33.557 19.31 53.697 0 41.94-29.518 75.939-65.93 75.939-36.412 0-65.93-33.999-65.93-75.939z" stroke="#EAF5FB" stroke-linecap="butt" stroke-linejoin="round" stroke-width="8"/>
<path d="m-34.836-48.106c0-41.94 29.825-75.939 66.616-75.939 17.668 0 34.612 8.0007 47.105 22.242 12.493 14.241 19.511 33.557 19.511 53.697 0 41.94-29.825 75.939-66.616 75.939-36.791 0-66.616-33.999-66.616-75.939z" fill="#f9fafc"/>
<path d="m-34.836-48.106c0-41.94 29.825-75.939 66.616-75.939 17.668 0 34.612 8.0007 47.105 22.242 12.493 14.241 19.511 33.557 19.511 53.697 0 41.94-29.825 75.939-66.616 75.939-36.791 0-66.616-33.999-66.616-75.939z" stroke="#f9fafc" stroke-linecap="butt" stroke-linejoin="round" stroke-width="8"/>
<path d="m98.396-48.106c0-41.94 29.825-75.939 66.616-75.939 17.668 0 34.612 8.0007 47.105 22.242 12.493 14.241 19.511 33.557 19.511 53.697 0 41.94-29.825 75.939-66.616 75.939-36.791 0-66.616-33.999-66.616-75.939z" fill="#f9fafc"/>
<path d="m98.396-48.106c0-41.94 29.825-75.939 66.616-75.939 17.668 0 34.612 8.0007 47.105 22.242 12.493 14.241 19.511 33.557 19.511 53.697 0 41.94-29.825 75.939-66.616 75.939-36.791 0-66.616-33.999-66.616-75.939z" stroke="#f9fafc" stroke-linecap="butt" stroke-linejoin="round" stroke-width="8"/>
<path d="m231.63-48.106c0-41.94 29.825-75.939 66.616-75.939 17.668 0 34.612 8.0007 47.105 22.242 12.493 14.241 19.511 33.557 19.511 53.697 0 41.94-29.825 75.939-66.616 75.939-36.791 0-66.616-33.999-66.616-75.939z" fill="#f9fafc"/>
<path d="m231.63-48.106c0-41.94 29.825-75.939 66.616-75.939 17.668 0 34.612 8.0007 47.105 22.242 12.493 14.241 19.511 33.557 19.511 53.697 0 41.94-29.825 75.939-66.616 75.939-36.791 0-66.616-33.999-66.616-75.939z" stroke="#f9fafc" stroke-linecap="butt" stroke-linejoin="round" stroke-width="8"/>
<path d="m364.86-55.231c0-41.94 29.825-75.939 66.616-75.939 17.668 0 34.612 8.0006 47.105 22.242 12.493 14.241 19.511 33.557 19.511 53.697 0 41.94-29.825 75.939-66.616 75.939-36.791 0-66.616-33.999-66.616-75.939z" fill="#f9fafc"/>
<path d="m364.86-55.231c0-41.94 29.825-75.939 66.616-75.939 17.668 0 34.612 8.0006 47.105 22.242 12.493 14.241 19.511 33.557 19.511 53.697 0 41.94-29.825 75.939-66.616 75.939-36.791 0-66.616-33.999-66.616-75.939z" stroke="#f9fafc" stroke-linecap="butt" stroke-linejoin="round" stroke-width="8"/>
<path d="m498.09-55.231c0-41.94 29.825-75.939 66.616-75.939 17.668 0 34.612 8.0006 47.105 22.242 12.493 14.241 19.511 33.557 19.511 53.697 0 41.94-29.825 75.939-66.616 75.939-36.791 0-66.616-33.999-66.616-75.939z" fill="#f9fafc"/>
<path d="m498.09-55.231c0-41.94 29.825-75.939 66.616-75.939 17.668 0 34.612 8.0006 47.105 22.242 12.493 14.241 19.511 33.557 19.511 53.697 0 41.94-29.825 75.939-66.616 75.939-36.791 0-66.616-33.999-66.616-75.939z" stroke="#f9fafc" stroke-linecap="butt" stroke-linejoin="round" stroke-width="8"/>
<path d="m631.32-55.231c0-41.94 29.825-75.939 66.616-75.939 17.668 0 34.612 8.0006 47.105 22.242 12.493 14.241 19.511 33.557 19.511 53.697 0 41.94-29.825 75.939-66.616 75.939-36.791 0-66.616-33.999-66.616-75.939z" fill="#f9fafc"/>
<path d="m631.32-55.231c0-41.94 29.825-75.939 66.616-75.939 17.668 0 34.612 8.0006 47.105 22.242 12.493 14.241 19.511 33.557 19.511 53.697 0 41.94-29.825 75.939-66.616 75.939-36.791 0-66.616-33.999-66.616-75.939z" stroke="#f9fafc" stroke-linecap="butt" stroke-linejoin="round" stroke-width="8"/>
<path d="m897.79-55.231c0-41.94 29.825-75.939 66.616-75.939 17.668 0 34.612 8.0006 47.105 22.242 12.493 14.241 19.511 33.557 19.511 53.697 0 41.94-29.825 75.939-66.616 75.939-36.791 0-66.616-33.999-66.616-75.939z" fill="#f9fafc"/>
<path d="m897.79-55.231c0-41.94 29.825-75.939 66.616-75.939 17.668 0 34.612 8.0006 47.105 22.242 12.493 14.241 19.511 33.557 19.511 53.697 0 41.94-29.825 75.939-66.616 75.939-36.791 0-66.616-33.999-66.616-75.939z" stroke="#f9fafc" stroke-linecap="butt" stroke-linejoin="round" stroke-width="8"/>
<path d="m1031-55.231c0-41.94 29.825-75.939 66.616-75.939 17.668 0 34.612 8.0006 47.105 22.242 12.493 14.241 19.511 33.557 19.511 53.697 0 41.94-29.825 75.939-66.616 75.939-36.791 0-66.616-33.999-66.616-75.939z" fill="#f9fafc"/>
<path d="m1031-55.231c0-41.94 29.825-75.939 66.616-75.939 17.668 0 34.612 8.0006 47.105 22.242 12.493 14.241 19.511 33.557 19.511 53.697 0 41.94-29.825 75.939-66.616 75.939-36.791 0-66.616-33.999-66.616-75.939z" stroke="#f9fafc" stroke-linecap="butt" stroke-linejoin="round" stroke-width="8"/>
<path d="m764.56-55.231c0-41.94 29.825-75.939 66.616-75.939 17.668 0 34.612 8.0006 47.105 22.242 12.493 14.241 19.511 33.557 19.511 53.697 0 41.94-29.825 75.939-66.616 75.939-36.791 0-66.616-33.999-66.616-75.939z" fill="#f9fafc"/>
<path d="m764.56-55.231c0-41.94 29.825-75.939 66.616-75.939 17.668 0 34.612 8.0006 47.105 22.242 12.493 14.241 19.511 33.557 19.511 53.697 0 41.94-29.825 75.939-66.616 75.939-36.791 0-66.616-33.999-66.616-75.939z" stroke="#f9fafc" stroke-linecap="butt" stroke-linejoin="round" stroke-width="8"/>
</g>
<metadata>
<rdf:RDF>
<cc:Work>
<dc:format>image/svg+xml</dc:format>
<dc:type rdf:resource="http://purl.org/dc/dcmitype/StillImage"/>
<cc:license rdf:resource="http://creativecommons.org/licenses/publicdomain/"/>
<dc:publisher>
<cc:Agent rdf:about="http://openclipart.org/">
<dc:title>Openclipart</dc:title>
</cc:Agent>
</dc:publisher>
<dc:title>Waves Pattern</dc:title>
<dc:date>2014-02-18T21:36:50</dc:date>
<dc:description>A Waves Pattern</dc:description>
<dc:source>https://openclipart.org/detail/191085/waves-pattern-by-scout-191085</dc:source>
<dc:creator>
<cc:Agent>
<dc:title>Scout</dc:title>
</cc:Agent>
</dc:creator>
<dc:subject>
<rdf:Bag>
<rdf:li>background</rdf:li>
<rdf:li>blue</rdf:li>
<rdf:li>design</rdf:li>
<rdf:li>ocean</rdf:li>
<rdf:li>pattern</rdf:li>
<rdf:li>sea</rdf:li>
<rdf:li>waves</rdf:li>
<rdf:li>waves pattern</rdf:li>
</rdf:Bag>
</dc:subject>
</cc:Work>
<cc:License rdf:about="http://creativecommons.org/licenses/publicdomain/">
<cc:permits rdf:resource="http://creativecommons.org/ns#Reproduction"/>
<cc:permits rdf:resource="http://creativecommons.org/ns#Distribution"/>
<cc:permits rdf:resource="http://creativecommons.org/ns#DerivativeWorks"/>
</cc:License>
</rdf:RDF>
</metadata>
</svg>
