<?xml version="1.0" standalone="no"?>
<!DOCTYPE svg PUBLIC "-//W3C//DTD SVG 20010904//EN" "http://www.w3.org/TR/2001/REC-SVG-20010904/DTD/svg10.dtd">
<svg version="1.0" xmlns="http://www.w3.org/2000/svg"
        width="352.000000pt" height="90.000000pt" viewBox="0 0 352.000000 90.000000"
        preserveAspectRatio="xMidYMid meet">

        <g transform="translate(0.000000,90.000000) scale(0.100000,-0.100000)"
                fill="#B0C4DE" fill-opacity="0.3" stroke="none">
                <path d="M948 873 c6 -2 18 -2 25 0 6 3 1 5 -13 5 -14 0 -19 -2 -12 -5z" />
                <path d="M2708 873 c6 -2 18 -2 25 0 6 3 1 5 -13 5 -14 0 -19 -2 -12 -5z" />
                <path d="M917 863 c-10 -9 -9 -33 1 -33 4 0 8 9 8 20 0 23 0 22 -9 13z" />
                <path
                        d="M2671 856 c-9 -11 -9 -16 1 -22 7 -4 10 -4 6 1 -4 4 -3 14 3 22 6 7
9 13 6 13 -2 0 -10 -6 -16 -14z" />
                <path
                        d="M2812 831 c18 -15 44 -31 58 -35 20 -5 19 -3 -5 8 -17 8 -39 24 -49
35 -11 12 -23 21 -28 21 -5 0 6 -13 24 -29z" />
                <path d="M1077 819 c12 -12 24 -21 27 -18 2 2 -8 13 -22 23 l-27 19 22 -24z" />
                <path d="M973 803 c9 -2 23 -2 30 0 6 3 -1 5 -18 5 -16 0 -22 -2 -12 -5z" />
                <path d="M2733 803 c9 -2 23 -2 30 0 6 3 -1 5 -18 5 -16 0 -22 -2 -12 -5z" />
                <path d="M933 785 c-3 -9 -3 -18 -1 -21 3 -3 8 4 11 16 6 23 -1 27 -10 5z" />
                <path
                        d="M1165 789 c-4 -5 0 -18 9 -28 9 -10 13 -21 9 -26 -5 -4 -2 -5 5 -1
11 7 10 11 -2 25 -22 25 -20 29 17 34 l32 4 -32 1 c-17 1 -35 -3 -38 -9z" />
                <path
                        d="M2924 789 c-3 -6 1 -17 10 -25 9 -8 11 -9 6 -2 -17 20 -12 27 23 31
l32 4 -32 1 c-17 1 -35 -3 -39 -9z" />
                <path
                        d="M3011 775 c9 -11 19 -27 22 -35 5 -13 6 -13 6 1 1 9 -9 24 -21 35
-23 19 -23 19 -7 -1z" />
                <path
                        d="M1272 755 c6 -16 21 -39 32 -50 l20 -20 -17 21 c-9 11 -17 25 -17 30
0 6 -7 19 -15 30 -14 17 -14 17 -3 -11z" />
                <path
                        d="M1140 750 c0 -11 4 -20 9 -20 5 0 7 9 4 20 -3 11 -7 20 -9 20 -2 0
-4 -9 -4 -20z" />
                <path d="M1063 745 c0 -8 4 -12 9 -9 5 3 6 10 3 15 -9 13 -12 11 -12 -6z" />
                <path d="M1000 716 c0 -8 4 -17 9 -20 5 -4 7 3 4 14 -6 23 -13 26 -13 6z" />
                <path
                        d="M3053 709 c9 -5 18 -20 18 -32 1 -18 2 -18 6 -4 5 20 -13 47 -31 47
-6 0 -3 -5 7 -11z" />
                <path d="M1121 673 c7 -12 15 -20 18 -17 3 2 -3 12 -13 22 -17 16 -18 16 -5
-5z" />
                <path d="M1175 680 c-3 -6 1 -7 9 -4 18 7 21 14 7 14 -6 0 -13 -4 -16 -10z" />
                <path d="M2930 675 c-19 -22 -8 -25 13 -3 9 10 13 18 8 18 -5 0 -14 -7 -21
-15z" />
                <path d="M1261 663 c7 -12 15 -20 18 -17 3 2 -3 12 -13 22 -17 16 -18 16 -5
-5z" />
                <path
                        d="M3020 660 c6 -11 13 -20 16 -20 2 0 0 9 -6 20 -6 11 -13 20 -16 20
-2 0 0 -9 6 -20z" />
                <path d="M2887 641 c-4 -17 -3 -21 5 -13 5 5 8 16 6 23 -3 8 -7 3 -11 -10z" />
                <path d="M1418 643 c7 -3 16 -2 19 1 4 3 -2 6 -13 5 -11 0 -14 -3 -6 -6z" />
                <path d="M3178 643 c7 -3 16 -2 19 1 4 3 -2 6 -13 5 -11 0 -14 -3 -6 -6z" />
                <path
                        d="M1125 630 c-3 -5 -1 -10 4 -10 6 0 11 5 11 10 0 6 -2 10 -4 10 -3 0
-8 -4 -11 -10z" />
                <path d="M3133 625 c-3 -9 -3 -18 -1 -21 3 -3 8 4 11 16 6 23 -1 27 -10 5z" />
                <path d="M1480 626 c0 -2 8 -10 18 -17 15 -13 16 -12 3 4 -13 16 -21 21 -21
13z" />
                <path d="M2675 619 c-4 -6 -5 -12 -2 -15 2 -3 7 2 10 11 7 17 1 20 -8 4z" />
                <path
                        d="M3293 606 c1 -11 9 -21 17 -23 10 -3 11 -2 4 4 -6 4 -14 15 -17 23
-5 11 -6 9 -4 -4z" />
                <path
                        d="M3362 605 c9 -11 21 -32 27 -48 6 -15 16 -27 23 -27 9 0 10 3 2 8 -6
4 -14 17 -18 28 -4 12 -17 30 -29 40 -22 19 -22 19 -5 -1z" />
                <path d="M1627 570 c3 -10 11 -24 19 -31 10 -8 10 -3 -2 20 -18 35 -24 40 -17
11z" />
                <path d="M528 573 c6 -2 18 -2 25 0 6 3 1 5 -13 5 -14 0 -19 -2 -12 -5z" />
                <path d="M583 573 c9 -2 23 -2 30 0 6 3 -1 5 -18 5 -16 0 -22 -2 -12 -5z" />
                <path
                        d="M962 568 c-17 -17 -15 -45 4 -52 24 -9 31 -7 12 5 -10 5 -18 16 -18
24 0 8 8 19 18 24 9 6 12 11 7 11 -6 0 -16 -5 -23 -12z" />
                <path
                        d="M1576 566 c6 -16 4 -18 -19 -14 -15 3 -24 1 -21 -3 7 -13 42 -11 50
2 3 6 1 16 -5 22 -9 9 -10 7 -5 -7z" />
                <path d="M2288 573 c7 -3 16 -2 19 1 4 3 -2 6 -13 5 -11 0 -14 -3 -6 -6z" />
                <path d="M2343 573 c9 -2 23 -2 30 0 6 3 -1 5 -18 5 -16 0 -22 -2 -12 -5z" />
                <path d="M108 553 c6 -2 18 -2 25 0 6 3 1 5 -13 5 -14 0 -19 -2 -12 -5z" />
                <path d="M218 553 c6 -2 18 -2 25 0 6 3 1 5 -13 5 -14 0 -19 -2 -12 -5z" />
                <path d="M1388 553 c6 -2 18 -2 25 0 6 3 1 5 -13 5 -14 0 -19 -2 -12 -5z" />
                <path d="M1863 553 c9 -2 23 -2 30 0 6 3 -1 5 -18 5 -16 0 -22 -2 -12 -5z" />
                <path d="M1973 553 c9 -2 23 -2 30 0 6 3 -1 5 -18 5 -16 0 -22 -2 -12 -5z" />
                <path d="M3138 553 c6 -2 18 -2 25 0 6 3 1 5 -13 5 -14 0 -19 -2 -12 -5z" />
                <path d="M1798 543 c7 -3 16 -2 19 1 4 3 -2 6 -13 5 -11 0 -14 -3 -6 -6z" />
                <path d="M2930 535 c-7 -9 -11 -17 -9 -20 3 -2 10 5 17 15 14 24 10 26 -8 5z" />
                <path d="M3308 543 c7 -3 16 -2 19 1 4 3 -2 6 -13 5 -11 0 -14 -3 -6 -6z" />
                <path d="M1038 533 c6 -2 18 -2 25 0 6 3 1 5 -13 5 -14 0 -19 -2 -12 -5z" />
                <path d="M2712 524 c10 -10 20 -16 22 -13 3 3 -5 11 -17 18 -21 13 -21 12 -5
-5z" />
                <path d="M2788 533 c6 -2 18 -2 25 0 6 3 1 5 -13 5 -14 0 -19 -2 -12 -5z" />
                <path d="M740 526 c0 -2 8 -10 18 -17 15 -13 16 -12 3 4 -13 16 -21 21 -21 13z" />
                <path d="M1720 520 c-9 -6 -10 -10 -3 -10 6 0 15 5 18 10 8 12 4 12 -15 0z" />
                <path
                        d="M2275 524 c6 -5 26 -23 45 -39 l35 -30 -25 28 c-14 16 -34 33 -45 39
-11 6 -15 6 -10 2z" />
                <path d="M410 511 c0 -5 7 -12 16 -15 14 -5 15 -4 4 9 -14 17 -20 19 -20 6z" />
                <path
                        d="M2151 517 c27 -20 60 -37 55 -28 -15 23 25 9 71 -25 39 -30 43 -32
23 -9 -31 33 -77 58 -96 51 -7 -3 -16 -1 -19 4 -4 6 -13 10 -22 10 -9 0 -14
-1 -12 -3z" />
                <path
                        d="M475 493 c17 -8 57 -41 90 -72 l60 -56 -55 58 c-50 53 -97 88 -117
87 -4 -1 6 -8 22 -17z" />
                <path
                        d="M2610 485 c13 -14 26 -25 28 -25 3 0 -5 11 -18 25 -13 14 -26 25 -28
25 -3 0 5 -11 18 -25z" />
                <path
                        d="M2670 485 c13 -14 26 -25 28 -25 3 0 -5 11 -18 25 -13 14 -26 25 -28
25 -3 0 5 -11 18 -25z" />
                <path
                        d="M800 475 c13 -14 26 -25 28 -25 3 0 -5 11 -18 25 -13 14 -26 25 -28
25 -3 0 5 -11 18 -25z" />
                <path d="M1368 493 c7 -3 16 -2 19 1 4 3 -2 6 -13 5 -11 0 -14 -3 -6 -6z" />
                <path d="M1418 493 c7 -3 16 -2 19 1 4 3 -2 6 -13 5 -11 0 -14 -3 -6 -6z" />
                <path d="M3168 493 c6 -2 18 -2 25 0 6 3 1 5 -13 5 -14 0 -19 -2 -12 -5z" />
                <path
                        d="M395 463 c126 -64 163 -149 97 -228 -11 -14 -8 -12 10 4 51 44 45
106 -15 169 -29 31 -115 83 -134 82 -4 -1 15 -12 42 -27z" />
                <path
                        d="M2570 465 c13 -14 26 -25 28 -25 3 0 -5 11 -18 25 -13 14 -26 25 -28
25 -3 0 5 -11 18 -25z" />
                <path d="M3255 465 c20 -15 39 -24 42 -22 5 5 -60 47 -72 47 -4 0 9 -11 30
-25z" />
                <path d="M148 473 c7 -3 16 -2 19 1 4 3 -2 6 -13 5 -11 0 -14 -3 -6 -6z" />
                <path
                        d="M585 460 c10 -11 20 -20 23 -20 3 0 -3 9 -13 20 -10 11 -20 20 -23
20 -3 0 3 -9 13 -20z" />
                <path
                        d="M775 455 c17 -14 44 -35 60 -46 l30 -21 -30 27 c-16 14 -43 35 -60
46 l-30 21 30 -27z" />
                <path d="M1048 468 c5 -5 16 -8 23 -6 8 3 3 7 -10 11 -17 4 -21 3 -13 -5z" />
                <path
                        d="M1495 474 c6 -5 23 -20 40 -34 29 -24 29 -24 10 -2 -11 13 -29 28
-40 34 -11 6 -15 6 -10 2z" />
                <path
                        d="M2180 448 c90 -55 125 -135 84 -198 l-16 -25 21 24 c28 31 27 88 -2
132 -22 33 -109 99 -130 99 -6 0 13 -15 43 -32z" />
                <path
                        d="M2525 460 c10 -11 20 -20 23 -20 3 0 -3 9 -13 20 -10 11 -20 20 -23
20 -3 0 3 -9 13 -20z" />
                <path d="M502 445 c15 -16 29 -27 31 -24 3 2 -10 15 -27 28 l-31 24 27 -28z" />
                <path d="M1130 466 c0 -2 8 -10 18 -17 15 -13 16 -12 3 4 -13 16 -21 21 -21
13z" />
                <path d="M2818 463 c7 -3 16 -2 19 1 4 3 -2 6 -13 5 -11 0 -14 -3 -6 -6z" />
                <path
                        d="M2270 435 c13 -14 26 -25 28 -25 3 0 -5 11 -18 25 -13 14 -26 25 -28
25 -3 0 5 -11 18 -25z" />
                <path
                        d="M1456 431 c17 -10 61 -54 99 -97 37 -44 87 -95 109 -114 34 -28 32
-24 -14 25 -31 33 -75 84 -100 113 -40 49 -95 92 -116 92 -5 0 5 -9 22 -19z" />
                <path
                        d="M2380 410 c17 -22 34 -40 37 -40 2 0 -10 18 -27 40 -17 22 -34 40
-37 40 -2 0 10 -18 27 -40z" />
                <path d="M2564 432 c8 -13 66 -56 66 -49 0 3 -17 17 -37 33 -20 15 -33 23 -29
16z" />
                <path
                        d="M3254 397 c22 -23 67 -72 99 -109 31 -37 72 -77 90 -90 17 -12 -24
37 -92 110 -68 73 -127 132 -131 132 -4 0 11 -19 34 -43z" />
                <path d="M628 403 c11 -16 30 -37 43 -48 12 -11 5 1 -16 28 -43 52 -57 63 -27
20z" />
                <path d="M2120 426 c0 -2 7 -7 16 -10 8 -3 12 -2 9 4 -6 10 -25 14 -25 6z" />
                <path
                        d="M2795 419 c-16 -6 -16 -8 -3 -8 9 -1 18 -7 21 -13 2 -7 7 -11 9 -8 3
3 3 12 -1 21 -4 12 -12 14 -26 8z" />
                <path d="M3385 393 c15 -24 30 -43 32 -43 7 0 -31 61 -46 73 -8 7 -2 -7 14
-30z" />
                <path
                        d="M1030 413 c8 -3 21 -10 28 -16 9 -7 11 -6 6 7 -3 9 -16 16 -28 15
-14 0 -16 -2 -6 -6z" />
                <path d="M1308 413 c7 -3 16 -2 19 1 4 3 -2 6 -13 5 -11 0 -14 -3 -6 -6z" />
                <path d="M1368 413 c6 -2 18 -2 25 0 6 3 1 5 -13 5 -14 0 -19 -2 -12 -5z" />
                <path d="M1610 416 c0 -2 8 -10 18 -17 15 -13 16 -12 3 4 -13 16 -21 21 -21
13z" />
                <path d="M3058 413 c7 -3 16 -2 19 1 4 3 -2 6 -13 5 -11 0 -14 -3 -6 -6z" />
                <path d="M3128 413 c7 -3 16 -2 19 1 4 3 -2 6 -13 5 -11 0 -14 -3 -6 -6z" />
                <path d="M3455 383 c15 -24 30 -43 32 -43 7 0 -31 61 -46 73 -8 7 -2 -7 14
-30z" />
                <path d="M556 388 c10 -14 21 -24 23 -22 3 3 -6 15 -18 27 l-24 22 19 -27z" />
                <path
                        d="M1425 398 c11 -6 47 -36 79 -67 l59 -56 -39 48 c-37 45 -90 87 -110
87 -5 0 0 -6 11 -12z" />
                <path d="M1680 406 c0 -2 8 -10 18 -17 15 -13 16 -12 3 4 -13 16 -21 21 -21
13z" />
                <path
                        d="M436 380 c6 -8 16 -24 22 -35 6 -11 12 -15 12 -8 0 7 -10 22 -22 35
-13 13 -18 17 -12 8z" />
                <path d="M809 387 c15 -19 71 -61 71 -54 0 2 -19 19 -42 37 -24 19 -37 26 -29
17z" />
                <path
                        d="M2320 380 c6 -11 13 -20 16 -20 2 0 0 9 -6 20 -6 11 -13 20 -16 20
-2 0 0 -9 6 -20z" />
                <path
                        d="M3190 398 c3 -2 30 -26 60 -53 54 -49 54 -49 15 -6 -22 23 -49 47
-60 53 -11 6 -18 9 -15 6z" />
                <path
                        d="M1120 383 c15 -7 12 -34 -7 -57 l-18 -21 23 19 c24 21 26 58 4 62 -7
1 -8 0 -2 -3z" />
                <path d="M2390 348 c41 -45 50 -53 50 -45 0 2 -21 23 -47 47 l-48 45 45 -47z" />
                <path d="M370 376 c0 -2 8 -10 18 -17 15 -13 16 -12 3 4 -13 16 -21 21 -21 13z" />
                <path
                        d="M1650 360 c6 -11 13 -20 16 -20 2 0 0 9 -6 20 -6 11 -13 20 -16 20
-2 0 0 -9 6 -20z" />
                <path
                        d="M2595 360 c10 -11 20 -20 23 -20 3 0 -3 9 -13 20 -10 11 -20 20 -23
20 -3 0 3 -9 13 -20z" />
                <path
                        d="M1720 350 c6 -11 13 -20 16 -20 2 0 0 9 -6 20 -6 11 -13 20 -16 20
-2 0 0 -9 6 -20z" />
                <path
                        d="M3161 357 c2 -1 13 -9 24 -17 19 -14 19 -14 6 3 -7 9 -18 17 -24 17
-6 0 -8 -1 -6 -3z" />
                <path d="M30 346 c0 -2 8 -10 18 -17 15 -13 16 -12 3 4 -13 16 -21 21 -21 13z" />
                <path d="M580 343 c0 -5 13 -17 28 -27 l27 -19 -24 26 c-26 28 -31 32 -31 20z" />
                <path d="M630 346 c0 -2 8 -10 18 -17 15 -13 16 -12 3 4 -13 16 -21 21 -21 13z" />
                <path
                        d="M2341 314 c1 -35 2 -36 8 -10 l6 28 20 -22 c11 -12 29 -26 40 -32 11
-6 16 -7 10 -2 -5 5 -27 25 -47 43 l-38 35 1 -40z" />
                <path d="M402 315 c0 -16 2 -22 5 -12 2 9 2 23 0 30 -3 6 -5 -1 -5 -18z" />
                <path
                        d="M1515 260 c44 -44 82 -80 85 -80 2 0 -31 36 -75 80 -44 44 -82 80
-85 80 -2 0 31 -36 75 -80z" />
                <path d="M3033 333 c9 -2 23 -2 30 0 6 3 -1 5 -18 5 -16 0 -22 -2 -12 -5z" />
                <path d="M1670 326 c0 -2 8 -10 18 -17 15 -13 16 -12 3 4 -13 16 -21 21 -21
13z" />
                <path d="M2162 310 c0 -14 2 -19 5 -12 2 6 2 18 0 25 -3 6 -5 1 -5 -13z" />
                <path
                        d="M3230 305 c13 -14 26 -25 28 -25 3 0 -5 11 -18 25 -13 14 -26 25 -28
25 -3 0 5 -11 18 -25z" />
                <path d="M1620 316 c0 -2 8 -10 18 -17 15 -13 16 -12 3 4 -13 16 -21 21 -21
13z" />
                <path
                        d="M1760 295 c13 -14 26 -25 28 -25 3 0 -5 11 -18 25 -13 14 -26 25 -28
25 -3 0 5 -11 18 -25z" />
                <path d="M2221 304 c0 -11 3 -14 6 -6 3 7 2 16 -1 19 -3 4 -6 -2 -5 -13z" />
                <path
                        d="M85 290 c10 -11 20 -20 23 -20 3 0 -3 9 -13 20 -10 11 -20 20 -23 20
-3 0 3 -9 13 -20z" />
                <path d="M680 306 c0 -2 8 -10 18 -17 15 -13 16 -12 3 4 -13 16 -21 21 -21 13z" />
                <path
                        d="M3455 290 c10 -11 20 -20 23 -20 3 0 -3 9 -13 20 -10 11 -20 20 -23
20 -3 0 3 -9 13 -20z" />
                <path d="M442 262 l-23 -37 26 28 c14 15 25 32 25 38 0 14 -3 11 -28 -29z" />
                <path d="M640 296 c0 -2 8 -10 18 -17 15 -13 16 -12 3 4 -13 16 -21 21 -21 13z" />
                <path d="M1420 297 c0 -3 12 -12 26 -22 15 -9 23 -12 20 -6 -7 11 -46 35 -46
28z" />
                <path d="M3180 297 c0 -2 19 -19 43 -37 23 -19 36 -26 28 -17 -15 19 -71 61
-71 54z" />
                <path d="M3430 258 c24 -27 45 -48 47 -48 8 0 0 9 -44 50 l-48 45 45 -47z" />
                <path d="M30 266 c14 -15 39 -37 55 -49 36 -24 26 -14 -35 39 -30 25 -37 29
-20 10z" />
                <path
                        d="M573 260 c-6 -16 -7 -30 -2 -30 5 0 9 7 9 16 0 8 4 13 9 10 5 -4 7 3
4 14 -7 25 -7 26 -20 -10z" />
                <path d="M600 286 c0 -2 8 -10 18 -17 15 -13 16 -12 3 4 -13 16 -21 21 -21 13z" />
                <path
                        d="M1715 270 c10 -11 20 -20 23 -20 3 0 -3 9 -13 20 -10 11 -20 20 -23
20 -3 0 3 -9 13 -20z" />
                <path
                        d="M3330 255 c19 -19 36 -35 39 -35 3 0 -10 16 -29 35 -19 19 -36 35
-39 35 -3 0 10 -16 29 -35z" />
                <path
                        d="M1670 255 c13 -14 26 -25 28 -25 3 0 -5 11 -18 25 -13 14 -26 25 -28
25 -3 0 5 -11 18 -25z" />
                <path d="M2139 263 c-13 -16 -12 -17 4 -4 16 13 21 21 13 21 -2 0 -10 -8 -17
-17z" />
                <path d="M2370 276 c0 -2 8 -10 18 -17 15 -13 16 -12 3 4 -13 16 -21 21 -21
13z" />
                <path
                        d="M1605 220 c27 -27 51 -50 54 -50 3 0 -17 23 -44 50 -27 28 -51 50
-54 50 -3 0 17 -22 44 -50z" />
                <path d="M2165 234 c-22 -13 -35 -24 -30 -24 12 0 75 38 75 45 0 6 2 7 -45
-21z" />
                <path
                        d="M1825 230 c10 -11 20 -20 23 -20 3 0 -3 9 -13 20 -10 11 -20 20 -23
20 -3 0 3 -9 13 -20z" />
                <path d="M2410 245 c0 -7 61 -37 66 -33 2 3 -12 12 -31 21 -19 9 -35 15 -35
12z" />
                <path
                        d="M2307 216 c-23 -35 -97 -67 -174 -75 l-68 -7 57 -5 c31 -2 54 -1 52
2 -5 9 64 21 76 14 6 -4 9 -1 8 5 -2 7 6 17 17 23 11 7 24 18 28 25 7 11 12
11 25 0 15 -12 16 -11 4 4 -8 9 -11 22 -7 28 13 21 -3 9 -18 -14z" />
                <path
                        d="M538 203 c-22 -27 -96 -54 -167 -62 l-66 -7 57 -5 c31 -2 54 -1 52 2
-2 4 13 10 33 14 38 7 83 31 96 52 6 9 16 7 42 -8 19 -12 35 -19 35 -16 0 3
-15 14 -34 25 -32 19 -36 19 -48 5z" />
                <path d="M1223 213 c9 -2 23 -2 30 0 6 3 -1 5 -18 5 -16 0 -22 -2 -12 -5z" />
                <path d="M1720 216 c0 -2 8 -10 18 -17 15 -13 16 -12 3 4 -13 16 -21 21 -21
13z" />
                <path d="M2973 213 c9 -2 25 -2 35 0 9 3 1 5 -18 5 -19 0 -27 -2 -17 -5z" />
                <path d="M134 186 c11 -9 24 -16 30 -16 12 0 7 5 -24 19 -24 11 -24 11 -6 -3z" />
                <path
                        d="M3265 180 c10 -11 20 -20 23 -20 3 0 -3 9 -13 20 -10 11 -20 20 -23
20 -3 0 3 -9 13 -20z" />
                <path d="M1714 181 c7 -11 46 -35 46 -28 0 3 -12 12 -26 22 -15 9 -23 12 -20
6z" />
                <path d="M3121 186 c2 -2 15 -9 29 -15 24 -11 24 -11 6 3 -16 13 -49 24 -35
12z" />
                <path d="M3400 186 c0 -2 8 -10 18 -17 15 -13 16 -12 3 4 -13 16 -21 21 -21
13z" />
                <path d="M3320 176 c0 -2 8 -10 18 -17 15 -13 16 -12 3 4 -13 16 -21 21 -21
13z" />
                <path d="M1168 153 c7 -3 16 -2 19 1 4 3 -2 6 -13 5 -11 0 -14 -3 -6 -6z" />
                <path d="M1590 156 c0 -2 8 -10 18 -17 15 -13 16 -12 3 4 -13 16 -21 21 -21
13z" />
                <path d="M2918 153 c6 -2 18 -2 25 0 6 3 1 5 -13 5 -14 0 -19 -2 -12 -5z" />
                <path d="M248 143 c7 -3 16 -2 19 1 4 3 -2 6 -13 5 -11 0 -14 -3 -6 -6z" />
                <path d="M1088 143 c7 -3 16 -2 19 1 4 3 -2 6 -13 5 -11 0 -14 -3 -6 -6z" />
                <path d="M2848 143 c7 -3 16 -2 19 1 4 3 -2 6 -13 5 -11 0 -14 -3 -6 -6z" />
                <path d="M1208 123 c12 -2 32 -2 45 0 12 2 2 4 -23 4 -25 0 -35 -2 -22 -4z" />
                <path d="M2968 123 c12 -2 30 -2 40 0 9 3 -1 5 -23 4 -22 0 -30 -2 -17 -4z" />
                <path d="M768 113 c7 -3 16 -2 19 1 4 3 -2 6 -13 5 -11 0 -14 -3 -6 -6z" />
        </g>
</svg>