<?xml version="1.0" standalone="no"?>
<!DOCTYPE svg PUBLIC "-//W3C//DTD SVG 20010904//EN" "http://www.w3.org/TR/2001/REC-SVG-20010904/DTD/svg10.dtd">
<svg version="1.0" xmlns="http://www.w3.org/2000/svg"
    width="352.000000pt" height="90.000000pt" viewBox="0 0 352.000000 90.000000"
    preserveAspectRatio="xMidYMid meet">

    <g transform="translate(0.000000,90.000000) scale(0.100000,-0.100000)"
        fill="#000000" stroke="none">
        <path
            d="M928 869 c-16 -9 -26 -39 -14 -39 2 0 13 -3 23 -6 16 -6 15 -5 -2 9
-24 18 -18 27 27 37 27 7 29 8 8 9 -14 0 -33 -4 -42 -10z" />
        <path d="M2713 873 c9 -2 23 -2 30 0 6 3 -1 5 -18 5 -16 0 -22 -2 -12 -5z" />
        <path
            d="M1030 849 c19 -12 39 -27 45 -33 10 -12 65 -39 65 -32 0 2 -15 13
-32 25 -18 11 -46 30 -63 41 -16 11 -34 20 -40 20 -5 0 6 -10 25 -21z" />
        <path
            d="M2667 855 c-4 -8 -1 -17 6 -21 7 -4 9 -4 5 1 -4 4 -3 14 3 22 7 8 8
13 1 13 -5 0 -12 -7 -15 -15z" />
        <path
            d="M2800 841 c19 -18 47 -36 62 -42 15 -6 29 -18 31 -27 4 -15 5 -15 6
1 1 12 -11 23 -32 32 -19 8 -40 21 -47 30 -7 9 -23 21 -34 27 -12 5 -5 -4 14
-21z" />
        <path d="M985 809 c-28 -6 -26 -7 13 -8 42 -1 53 3 30 11 -7 2 -26 1 -43 -3z" />
        <path d="M2745 810 c-29 -8 -29 -8 7 -7 20 1 34 5 32 9 -3 4 -6 7 -7 7 -1 -1
-15 -5 -32 -9z" />
        <path d="M937 793 c-10 -9 -9 -33 1 -33 4 0 8 9 8 20 0 23 0 22 -9 13z" />
        <path
            d="M1165 789 c-4 -5 0 -18 9 -28 9 -10 13 -21 9 -26 -5 -4 -2 -5 5 -1
11 7 10 11 -2 25 -19 21 -12 31 25 31 27 0 69 -39 69 -64 0 -6 9 -17 20 -24
12 -7 20 -8 20 -2 0 5 -4 10 -10 10 -5 0 -16 15 -24 34 -8 19 -23 39 -34 45
-26 14 -79 14 -87 0z" />
        <path
            d="M2920 786 c0 -7 8 -20 18 -27 14 -11 15 -11 5 1 -20 22 -16 28 20 33
31 4 31 4 -5 5 -26 2 -38 -2 -38 -12z" />
        <path
            d="M3013 774 c9 -11 17 -28 17 -37 0 -9 9 -21 19 -27 11 -5 22 -20 24
-32 4 -22 4 -22 6 -2 0 11 -8 29 -19 39 -11 10 -20 23 -20 30 0 7 -10 20 -22
31 -23 19 -23 19 -5 -2z" />
        <path d="M993 763 c9 -2 25 -2 35 0 9 3 1 5 -18 5 -19 0 -27 -2 -17 -5z" />
        <path d="M1140 750 c0 -11 4 -20 9 -20 5 0 7 9 4 20 -3 11 -7 20 -9 20 -2 0
-4 -9 -4 -20z" />
        <path d="M2748 763 c12 -2 30 -2 40 0 9 3 -1 5 -23 4 -22 0 -30 -2 -17 -4z" />
        <path d="M1053 745 c0 -8 7 -15 15 -15 7 0 12 5 10 12 -6 18 -25 21 -25 3z" />
        <path d="M2813 745 c0 -8 4 -15 9 -15 4 0 8 4 8 9 0 6 -4 12 -8 15 -5 3 -9 -1
-9 -9z" />
        <path d="M2765 730 c-3 -6 1 -7 9 -4 18 7 21 14 7 14 -6 0 -13 -4 -16 -10z" />
        <path d="M1000 710 c0 -11 4 -20 9 -20 5 0 7 9 4 20 -3 11 -7 20 -9 20 -2 0
-4 -9 -4 -20z" />
        <path d="M2760 700 c0 -5 5 -10 11 -10 5 0 7 5 4 10 -3 6 -8 10 -11 10 -2 0
-4 -4 -4 -10z" />
        <path
            d="M1113 679 c22 -13 22 -45 0 -58 -20 -12 -13 -14 11 -5 29 11 13 75
-18 74 -6 0 -3 -5 7 -11z" />
        <path
            d="M1172 678 c-15 -15 -15 -28 -1 -28 5 0 8 4 4 9 -3 6 3 14 12 20 10 6
13 11 8 11 -6 0 -16 -5 -23 -12z" />
        <path d="M1253 667 c12 -13 24 -22 26 -20 6 4 -30 43 -40 43 -5 0 2 -10 14
-23z" />
        <path
            d="M2932 678 c-15 -15 -15 -28 -1 -28 5 0 8 4 4 9 -3 6 3 14 12 20 10 6
13 11 8 11 -6 0 -16 -5 -23 -12z" />
        <path
            d="M2886 658 c5 -23 2 -30 -17 -37 -16 -6 -18 -10 -8 -10 28 -1 44 26
31 52 -11 21 -11 20 -6 -5z" />
        <path d="M3020 660 c6 -11 13 -20 16 -20 2 0 0 9 -6 20 -6 11 -13 20 -16 20
-2 0 0 -9 6 -20z" />
        <path d="M1418 643 c6 -2 18 -2 25 0 6 3 1 5 -13 5 -14 0 -19 -2 -12 -5z" />
        <path
            d="M2961 647 c2 -1 13 -9 24 -17 19 -14 19 -14 6 3 -7 9 -18 17 -24 17
-6 0 -8 -1 -6 -3z" />
        <path d="M3173 643 c9 -2 23 -2 30 0 6 3 -1 5 -18 5 -16 0 -22 -2 -12 -5z" />
        <path
            d="M1313 617 c12 -13 28 -32 35 -43 11 -16 11 -15 1 6 -14 30 -39 60
-50 60 -4 0 2 -10 14 -23z" />
        <path
            d="M1374 629 c-9 -15 11 -32 32 -26 15 4 14 5 -5 6 -20 1 -21 3 -11 16
8 9 9 15 2 15 -6 0 -14 -5 -18 -11z" />
        <path
            d="M1461 637 c2 -1 15 -11 29 -22 l25 -20 -19 23 c-11 12 -24 22 -29 22
-6 0 -8 -1 -6 -3z" />
        <path d="M2680 625 c-19 -22 -8 -25 13 -3 9 10 13 18 8 18 -5 0 -14 -7 -21
-15z" />
        <path
            d="M3137 633 c-18 -17 -5 -33 27 -33 19 0 37 -5 39 -10 3 -6 4 -5 3 2
-1 7 -17 14 -35 16 -23 2 -31 7 -27 18 6 15 3 18 -7 7z" />
        <path d="M3085 601 c8 -17 19 -33 25 -36 5 -3 1 10 -11 29 -25 43 -36 48 -14
7z" />
        <path
            d="M3246 618 c23 -41 57 -78 72 -77 13 0 12 2 -4 9 -12 5 -31 24 -44 44
-20 33 -41 53 -24 24z" />
        <path
            d="M1535 610 c-8 -13 3 -30 18 -30 8 0 7 3 -2 9 -7 5 -10 14 -7 20 4 6
5 11 2 11 -3 0 -8 -4 -11 -10z" />
        <path
            d="M1608 600 c12 -13 22 -29 22 -36 0 -6 7 -17 15 -24 11 -9 8 2 -7 30
-13 24 -29 46 -37 48 -8 3 -5 -5 7 -18z" />
        <path
            d="M3292 603 c2 -9 10 -18 18 -20 12 -4 13 -3 1 5 -7 5 -10 15 -7 21 4
6 2 11 -4 11 -6 0 -10 -8 -8 -17z" />
        <path
            d="M3362 605 c9 -11 21 -32 27 -48 6 -15 16 -27 23 -27 9 0 10 3 2 8 -6
4 -14 17 -18 28 -4 12 -17 30 -29 40 -22 19 -22 19 -5 -1z" />
        <path d="M403 603 c9 -2 25 -2 35 0 9 3 1 5 -18 5 -19 0 -27 -2 -17 -5z" />
        <path d="M928 598 c6 -6 18 -8 28 -6 14 3 12 5 -9 10 -19 3 -25 2 -19 -4z" />
        <path
            d="M1147 603 c-11 -10 -8 -33 4 -33 5 0 7 5 3 11 -3 6 0 15 7 20 8 5 9
9 3 9 -6 0 -14 -3 -17 -7z" />
        <path d="M1435 586 c0 -13 3 -22 8 -19 4 2 7 13 7 24 0 10 -3 19 -7 19 -5 0
-8 -11 -8 -24z" />
        <path d="M2163 603 c9 -2 25 -2 35 0 9 3 1 5 -18 5 -19 0 -27 -2 -17 -5z" />
        <path
            d="M2903 595 c-3 -9 -3 -19 1 -22 3 -4 6 1 6 10 0 8 6 18 13 20 9 4 9 6
-1 6 -7 1 -15 -6 -19 -14z" />
        <path d="M2980 606 c0 -2 7 -7 16 -10 8 -3 12 -2 9 4 -6 10 -25 14 -25 6z" />
        <path d="M2698 593 c7 -3 16 -2 19 1 4 3 -2 6 -13 5 -11 0 -14 -3 -6 -6z" />
        <path d="M512 579 c7 -5 38 -8 68 -8 66 1 56 6 -23 12 -32 2 -52 0 -45 -4z" />
        <path
            d="M972 574 c-41 -29 -18 -80 25 -55 16 10 15 10 -7 8 -39 -3 -39 30 2
48 18 8 26 14 18 15 -9 0 -26 -7 -38 -16z" />
        <path
            d="M1522 570 c18 -30 61 -34 66 -7 2 9 -1 17 -7 17 -6 0 -8 -7 -5 -15
10 -24 -31 -18 -51 8 -17 22 -17 22 -3 -3z" />
        <path
            d="M2734 580 c-29 -11 -38 -40 -20 -58 12 -13 20 -13 38 -4 19 10 19 11
3 7 -26 -6 -50 9 -40 25 4 7 21 18 39 26 33 14 15 18 -20 4z" />
        <path d="M2308 573 c18 -2 45 -2 60 0 15 2 0 4 -33 4 -33 0 -45 -2 -27 -4z" />
        <path d="M648 563 c7 -3 16 -2 19 1 4 3 -2 6 -13 5 -11 0 -14 -3 -6 -6z" />
        <path d="M133 553 c26 -2 67 -2 90 0 23 2 2 3 -48 3 -50 0 -68 -1 -42 -3z" />
        <path d="M1383 553 c9 -2 23 -2 30 0 6 3 -1 5 -18 5 -16 0 -22 -2 -12 -5z" />
        <path d="M1883 553 c26 -2 68 -2 95 0 26 2 4 3 -48 3 -52 0 -74 -1 -47 -3z" />
        <path d="M3143 553 c9 -2 23 -2 30 0 6 3 -1 5 -18 5 -16 0 -22 -2 -12 -5z" />
        <path d="M38 543 c6 -2 18 -2 25 0 6 3 1 5 -13 5 -14 0 -19 -2 -12 -5z" />
        <path d="M298 543 c7 -3 16 -2 19 1 4 3 -2 6 -13 5 -11 0 -14 -3 -6 -6z" />
        <path
            d="M346 541 c-19 -7 -18 -8 4 -14 13 -3 26 -4 29 -2 2 3 -2 5 -10 5 -11
0 -11 2 1 10 18 11 3 12 -24 1z" />
        <path d="M1798 543 c7 -3 16 -2 19 1 4 3 -2 6 -13 5 -11 0 -14 -3 -6 -6z" />
        <path d="M2048 543 c6 -2 18 -2 25 0 6 3 1 5 -13 5 -14 0 -19 -2 -12 -5z" />
        <path
            d="M2109 542 c-12 -5 0 -15 43 -34 32 -15 56 -23 53 -18 -14 22 26 7 71
-27 41 -30 45 -32 24 -9 -31 34 -77 59 -96 52 -8 -3 -14 -1 -14 4 0 6 -9 10
-19 10 -28 0 -52 11 -45 21 6 10 5 10 -17 1z" />
        <path d="M2225 540 c27 -12 43 -12 25 0 -8 5 -22 9 -30 9 -10 0 -8 -3 5 -9z" />
        <path d="M2460 546 c0 -3 9 -10 20 -16 11 -6 20 -8 20 -6 0 3 -9 10 -20 16
-11 6 -20 8 -20 6z" />
        <path
            d="M2926 534 c-9 -23 -7 -34 5 -34 5 0 7 5 4 10 -4 6 -1 17 5 25 7 9 8
15 2 15 -5 0 -13 -7 -16 -16z" />
        <path d="M490 536 c0 -2 7 -7 16 -10 8 -3 12 -2 9 4 -6 10 -25 14 -25 6z" />
        <path d="M720 537 c0 -3 12 -12 26 -22 15 -9 23 -12 20 -6 -7 11 -46 35 -46
28z" />
        <path d="M1033 533 c9 -2 23 -2 30 0 6 3 -1 5 -18 5 -16 0 -22 -2 -12 -5z" />
        <path d="M2378 533 c7 -3 16 -2 19 1 4 3 -2 6 -13 5 -11 0 -14 -3 -6 -6z" />
        <path d="M2793 533 c9 -2 23 -2 30 0 6 3 -1 5 -18 5 -16 0 -22 -2 -12 -5z" />
        <path d="M660 520 c8 -5 20 -10 25 -10 6 0 3 5 -5 10 -8 5 -19 10 -25 10 -5 0
-3 -5 5 -10z" />
        <path d="M1698 519 c13 -5 30 -5 38 -1 9 5 1 8 -23 9 -33 1 -35 0 -15 -8z" />
        <path
            d="M2275 524 c6 -5 26 -23 45 -39 l35 -30 -25 28 c-14 16 -34 33 -45 39
-11 6 -15 6 -10 2z" />
        <path
            d="M2602 494 c21 -22 52 -47 70 -57 32 -17 32 -17 8 0 -14 10 -45 36
-70 58 l-45 39 37 -40z" />
        <path d="M148 513 c18 -2 45 -2 60 0 15 2 0 4 -33 4 -33 0 -45 -2 -27 -4z" />
        <path
            d="M446 482 c63 -41 134 -113 134 -136 0 -12 109 -96 126 -96 4 0 -18
18 -49 40 -31 22 -66 59 -79 81 -12 23 -49 61 -81 85 -33 24 -54 44 -47 44 27
0 73 -35 146 -112 42 -46 59 -60 36 -33 -92 113 -163 165 -225 165 -13 0 0
-13 39 -38z" />
        <path
            d="M576 465 c27 -32 71 -81 98 -109 l49 -51 -44 51 c-24 28 -60 71 -79
96 -19 25 -44 51 -54 58 -11 7 3 -14 30 -45z" />
        <path
            d="M835 500 c10 -11 20 -20 23 -20 3 0 -3 9 -13 20 -10 11 -20 20 -23
20 -3 0 3 -9 13 -20z" />
        <path
            d="M895 500 c10 -11 20 -20 23 -20 3 0 -3 9 -13 20 -10 11 -20 20 -23
20 -3 0 3 -9 13 -20z" />
        <path d="M1908 513 c18 -2 45 -2 60 0 15 2 0 4 -33 4 -33 0 -45 -2 -27 -4z" />
        <path
            d="M2468 495 c23 -13 64 -41 90 -62 64 -50 85 -62 42 -24 -44 41 -149
111 -164 111 -6 0 8 -11 32 -25z" />
        <path
            d="M2545 486 c22 -20 54 -46 70 -57 l30 -21 -30 27 c-16 14 -48 40 -70
56 l-40 31 40 -36z" />
        <path d="M2962 511 c-9 -5 -4 -8 16 -7 17 1 28 4 25 9 -6 9 -25 9 -41 -2z" />
        <path d="M3482 498 c7 -15 15 -23 17 -17 2 6 -4 18 -13 27 -15 15 -15 15 -4
-10z" />
        <path d="M278 503 c7 -3 16 -2 19 1 4 3 -2 6 -13 5 -11 0 -14 -3 -6 -6z" />
        <path d="M2038 503 c7 -3 16 -2 19 1 4 3 -2 6 -13 5 -11 0 -14 -3 -6 -6z" />
        <path
            d="M2672 484 c15 -16 42 -37 60 -47 32 -17 32 -17 8 0 -13 10 -40 31
-60 48 l-35 29 27 -30z" />
        <path
            d="M2800 495 c-16 -20 0 -39 26 -32 16 4 15 5 -3 6 -27 1 -30 16 -5 30
9 6 12 11 6 11 -6 0 -17 -7 -24 -15z" />
        <path d="M730 488 c34 -29 136 -105 150 -112 20 -10 4 4 -75 65 -59 44 -109
77 -75 47z" />
        <path d="M795 481 c21 -24 75 -66 75 -58 0 3 -21 22 -47 43 -27 21 -39 28 -28
15z" />
        <path d="M1044 480 c1 -8 10 -16 21 -17 15 -1 15 0 3 3 -9 3 -19 11 -21 17 -2
7 -3 5 -3 -3z" />
        <path d="M1383 493 c15 -2 37 -2 50 0 12 2 0 4 -28 4 -27 0 -38 -2 -22 -4z" />
        <path
            d="M2123 476 c161 -66 208 -186 101 -257 -16 -10 -24 -19 -17 -19 6 0
28 15 47 34 31 29 36 40 36 78 0 36 -6 52 -35 86 -34 39 -141 102 -174 102 -9
0 10 -11 42 -24z" />
        <path
            d="M3167 490 c65 -7 94 -22 139 -67 l27 -28 -22 32 c-29 43 -95 73 -157
72 l-49 -2 62 -7z" />
        <path
            d="M401 460 c81 -42 119 -89 119 -147 0 -40 -5 -50 -37 -81 -21 -19 -28
-30 -17 -24 35 19 74 72 74 101 0 49 -51 113 -117 149 -34 17 -65 32 -69 32
-5 -1 16 -14 47 -30z" />
        <path
            d="M1501 462 c24 -16 52 -39 62 -53 12 -16 15 -17 8 -4 -11 24 -47 58
-78 74 -41 21 -37 11 8 -17z" />
        <path d="M138 473 c12 -2 30 -2 40 0 9 3 -1 5 -23 4 -22 0 -30 -2 -17 -4z" />
        <path
            d="M945 460 c10 -11 20 -20 23 -20 3 0 -3 9 -13 20 -10 11 -20 20 -23
20 -3 0 3 -9 13 -20z" />
        <path d="M1898 473 c12 -2 30 -2 40 0 9 3 -1 5 -23 4 -22 0 -30 -2 -17 -4z" />
        <path d="M2220 477 c0 -2 19 -19 43 -37 23 -19 36 -26 28 -17 -15 19 -71 61
-71 54z" />
        <path
            d="M3381 457 c30 -20 55 -48 112 -127 17 -24 17 -24 0 10 -22 42 -114
140 -133 140 -7 0 2 -10 21 -23z" />
        <path d="M238 463 c7 -3 16 -2 19 1 4 3 -2 6 -13 5 -11 0 -14 -3 -6 -6z" />
        <path d="M880 466 c0 -2 8 -10 18 -17 15 -13 16 -12 3 4 -13 16 -21 21 -21 13z" />
        <path d="M1130 466 c0 -2 8 -10 18 -17 15 -13 16 -12 3 4 -13 16 -21 21 -21
13z" />
        <path d="M1188 463 c6 -2 18 -2 25 0 6 3 1 5 -13 5 -14 0 -19 -2 -12 -5z" />
        <path
            d="M1741 451 c-1 -24 -1 -24 -23 -5 -20 16 -19 15 2 -9 19 -22 26 -25
28 -13 2 9 1 24 -1 34 -3 12 -5 10 -6 -7z" />
        <path d="M2880 466 c0 -2 7 -7 16 -10 8 -3 12 -2 9 4 -6 10 -25 14 -25 6z" />
        <path d="M2948 463 c6 -2 18 -2 25 0 6 3 1 5 -13 5 -14 0 -19 -2 -12 -5z" />
        <path d="M1378 453 c6 -2 18 -2 25 0 6 3 1 5 -13 5 -14 0 -19 -2 -12 -5z" />
        <path d="M2038 453 c7 -3 16 -2 19 1 4 3 -2 6 -13 5 -11 0 -14 -3 -6 -6z" />
        <path d="M3138 453 c7 -3 16 -2 19 1 4 3 -2 6 -13 5 -11 0 -14 -3 -6 -6z" />
        <path
            d="M1446 436 c17 -8 63 -51 103 -97 68 -80 153 -159 193 -180 32 -17 20
-4 -27 30 -25 18 -84 77 -131 132 -81 94 -125 130 -156 129 -7 -1 1 -7 18 -14z" />
        <path
            d="M1707 368 c69 -99 122 -152 185 -184 68 -34 74 -29 8 7 -71 39 -120
87 -181 176 -27 39 -53 74 -59 78 -5 3 16 -31 47 -77z" />
        <path d="M2396 393 c26 -35 49 -63 51 -63 6 0 -31 50 -67 90 -17 19 -10 7 16
-27z" />
        <path
            d="M382 415 c56 -30 78 -58 78 -103 0 -40 -44 -87 -91 -97 -17 -4 -28
-9 -25 -12 10 -10 70 17 98 44 35 33 38 88 7 127 -19 24 -88 67 -106 66 -4 -1
13 -12 39 -25z" />
        <path d="M920 436 c0 -3 9 -10 20 -16 11 -6 20 -8 20 -6 0 3 -9 10 -20 16 -11
6 -20 8 -20 6z" />
        <path d="M987 429 c7 -7 15 -10 18 -7 3 3 -2 9 -12 12 -14 6 -15 5 -6 -5z" />
        <path
            d="M1065 430 c-3 -5 -16 -11 -28 -11 -17 -1 -18 -2 -4 -6 9 -2 17 -9 17
-14 0 -5 5 -9 11 -9 5 0 7 5 4 10 -4 6 -1 17 5 25 7 8 10 15 7 15 -3 0 -9 -4
-12 -10z" />
        <path
            d="M2800 424 c-19 -10 -21 -14 -7 -14 9 0 17 -4 17 -10 0 -5 4 -10 10
-10 5 0 7 7 3 16 -3 9 0 20 8 25 22 14 -4 8 -31 -7z" />
        <path
            d="M3247 402 c21 -20 66 -70 101 -110 35 -39 84 -86 109 -103 39 -27 32
-18 -38 52 -46 46 -108 110 -137 142 -29 31 -57 57 -63 57 -5 0 7 -17 28 -38z" />
        <path
            d="M3400 368 c26 -40 61 -84 76 -98 l29 -25 -26 30 c-14 17 -45 58 -68
92 -22 34 -45 64 -50 67 -5 4 12 -27 39 -66z" />
        <path d="M3490 422 c6 -13 14 -21 18 -18 3 4 -2 14 -12 24 -18 16 -18 16 -6
-6z" />
        <path d="M760 426 c0 -2 8 -10 18 -17 15 -13 16 -12 3 4 -13 16 -21 21 -21 13z" />
        <path
            d="M2157 403 c23 -14 47 -37 54 -50 7 -13 14 -21 16 -19 9 9 -30 56 -62
76 -48 30 -55 24 -8 -7z" />
        <path
            d="M1350 410 c36 -3 77 -14 91 -23 15 -10 69 -64 122 -120 52 -56 110
-111 128 -121 39 -22 31 -12 -24 28 -21 15 -72 68 -114 117 -88 103 -132 130
-214 128 l-54 -2 65 -7z" />
        <path d="M1642 371 c18 -29 50 -72 71 -95 33 -36 31 -32 -12 29 -73 102 -96
128 -59 66z" />
        <path d="M2338 405 c6 -11 32 -40 58 -65 l48 -45 -49 55 c-66 75 -69 78 -57
55z" />
        <path
            d="M2545 400 c10 -11 20 -20 23 -20 3 0 -3 9 -13 20 -10 11 -20 20 -23
20 -3 0 3 -9 13 -20z" />
        <path
            d="M3105 411 c82 -9 111 -27 195 -123 57 -65 143 -148 154 -148 1 0 -55
58 -124 129 -69 72 -138 135 -153 140 -16 6 -52 10 -80 9 l-52 -1 60 -6z" />
        <path
            d="M335 393 c17 -8 39 -23 50 -32 19 -15 19 -15 6 2 -15 18 -63 47 -78
47 -4 -1 6 -8 22 -17z" />
        <path
            d="M2071 407 c2 -2 18 -11 34 -21 l30 -17 -24 20 c-13 12 -28 21 -34 21
-6 0 -8 -1 -6 -3z" />
        <path d="M0 393 c0 -6 8 -17 18 -24 16 -13 16 -13 2 6 -8 11 -16 22 -17 24 -2
2 -3 0 -3 -6z" />
        <path
            d="M800 397 c0 -10 100 -87 112 -87 6 0 -7 12 -28 26 -21 14 -49 35 -61
47 -13 11 -23 18 -23 14z" />
        <path d="M1750 396 c0 -2 8 -10 18 -17 15 -13 16 -12 3 4 -13 16 -21 21 -21
13z" />
        <path
            d="M2325 373 c8 -18 15 -45 15 -60 0 -24 10 -34 63 -65 34 -20 71 -40
82 -43 11 -3 7 1 -10 10 -77 43 -125 78 -125 91 0 17 16 19 26 3 8 -14 95 -69
108 -69 6 0 -12 13 -40 29 -46 27 -89 68 -122 117 -7 10 -5 5 3 -13z" />
        <path d="M2485 393 c6 -5 30 -24 55 -42 l45 -33 -35 32 c-31 27 -91 68 -65 43z" />
        <path d="M2758 393 c7 -3 16 -2 19 1 4 3 -2 6 -13 5 -11 0 -14 -3 -6 -6z" />
        <path d="M1120 383 c15 -7 12 -34 -7 -57 l-18 -21 23 19 c24 21 26 58 4 62 -7
1 -8 0 -2 -3z" />
        <path
            d="M2878 378 c16 -20 6 -45 -27 -63 -14 -8 -20 -14 -13 -15 20 0 64 48
60 67 -2 9 -10 19 -18 21 -12 4 -13 3 -2 -10z" />
        <path d="M1323 373 c9 -2 23 -2 30 0 6 3 -1 5 -18 5 -16 0 -22 -2 -12 -5z" />
        <path
            d="M2595 360 c10 -11 20 -20 23 -20 3 0 -3 9 -13 20 -10 11 -20 20 -23
20 -3 0 3 -9 13 -20z" />
        <path d="M2654 366 c11 -9 24 -16 30 -16 12 0 7 5 -24 19 -24 11 -24 11 -6 -3z" />
        <path d="M3078 373 c6 -2 18 -2 25 0 6 3 1 5 -13 5 -14 0 -19 -2 -12 -5z" />
        <path
            d="M335 350 c10 -11 20 -20 23 -20 3 0 -3 9 -13 20 -10 11 -20 20 -23
20 -3 0 3 -9 13 -20z" />
        <path
            d="M785 350 c10 -11 20 -20 23 -20 3 0 -3 9 -13 20 -10 11 -20 20 -23
20 -3 0 3 -9 13 -20z" />
        <path
            d="M3181 342 c24 -16 67 -53 94 -83 28 -30 64 -65 80 -78 17 -14 -4 11
-45 53 -76 79 -144 136 -163 136 -6 0 9 -13 34 -28z" />
        <path d="M270 356 c0 -2 8 -10 18 -17 15 -13 16 -12 3 4 -13 16 -21 21 -21 13z" />
        <path
            d="M1410 359 c3 -3 50 -47 105 -99 l100 -95 -85 88 c-47 49 -94 93 -105
99 -11 6 -18 9 -15 7z" />
        <path
            d="M3359 344 c14 -29 108 -132 132 -145 11 -5 -7 16 -39 48 -32 32 -69
72 -81 88 -12 17 -17 20 -12 9z" />
        <path
            d="M65 310 c21 -22 41 -40 44 -40 3 0 -13 18 -34 40 -21 22 -41 40 -44
40 -3 0 13 -18 34 -40z" />
        <path
            d="M1606 340 c17 -34 68 -91 107 -121 40 -30 40 -29 -9 17 -27 27 -63
65 -78 84 -15 19 -25 28 -20 20z" />
        <path
            d="M2046 336 c4 -11 2 -21 -7 -27 -10 -6 -11 -9 -1 -9 18 0 27 29 13 43
-9 9 -11 8 -5 -7z" />
        <path
            d="M401 316 c0 -16 -9 -39 -18 -50 -17 -21 -17 -21 6 0 16 15 21 29 18
50 l-4 29 -2 -29z" />
        <path d="M988 333 c6 -2 18 -2 25 0 6 3 1 5 -13 5 -14 0 -19 -2 -12 -5z" />
        <path d="M1258 333 c7 -3 16 -2 19 1 4 3 -2 6 -13 5 -11 0 -14 -3 -6 -6z" />
        <path d="M1298 333 c7 -3 16 -2 19 1 4 3 -2 6 -13 5 -11 0 -14 -3 -6 -6z" />
        <path d="M2738 333 c6 -2 18 -2 25 0 6 3 1 5 -13 5 -14 0 -19 -2 -12 -5z" />
        <path d="M3028 333 c12 -2 30 -2 40 0 9 3 -1 5 -23 4 -22 0 -30 -2 -17 -4z" />
        <path d="M1348 323 c7 -3 16 -2 19 1 4 3 -2 6 -13 5 -11 0 -14 -3 -6 -6z" />
        <path d="M2102 302 c-11 -25 -11 -25 4 -10 9 9 15 21 13 27 -2 6 -10 -2 -17
-17z" />
        <path
            d="M2160 312 c0 -10 -7 -29 -16 -42 l-16 -25 21 24 c19 21 29 61 16 61
-3 0 -5 -8 -5 -18z" />
        <path d="M1814 312 c8 -13 66 -56 66 -49 0 3 -17 17 -37 33 -20 15 -33 23 -29
16z" />
        <path
            d="M2215 289 c-7 -24 -22 -40 -50 -56 -22 -13 -35 -23 -30 -23 19 0 74
39 85 60 6 12 10 28 8 37 -2 9 -7 1 -13 -18z" />
        <path
            d="M0 300 c0 -14 98 -99 138 -119 62 -31 64 -25 4 9 -29 17 -72 50 -97
74 -25 23 -45 39 -45 36z" />
        <path d="M684 301 c7 -11 46 -35 46 -28 0 3 -12 12 -26 22 -15 9 -23 12 -20 6z" />
        <path d="M1055 300 c-13 -6 -15 -9 -5 -9 8 0 22 4 30 9 18 12 2 12 -25 0z" />
        <path
            d="M1401 307 c2 -2 22 -15 44 -31 l40 -27 -35 30 c-19 17 -39 31 -44 31
-5 0 -7 -1 -5 -3z" />
        <path
            d="M3180 293 c14 -10 48 -38 75 -63 l50 -44 -42 45 c-24 24 -57 53 -75
62 -32 17 -32 17 -8 0z" />
        <path d="M228 293 c7 -3 16 -2 19 1 4 3 -2 6 -13 5 -11 0 -14 -3 -6 -6z" />
        <path
            d="M577 271 c-15 -72 -90 -118 -212 -129 l-70 -7 60 -5 c35 -3 63 -1 67
5 5 6 16 5 30 -4 21 -13 22 -13 9 2 -12 15 -11 17 3 17 10 0 27 -5 39 -11 21
-9 21 -9 4 5 -18 14 -18 15 5 27 13 6 26 17 30 23 5 7 22 3 52 -12 56 -27 60
-21 6 9 -21 12 -37 26 -34 31 3 4 9 6 14 3 4 -3 6 5 2 17 -5 21 -4 22 14 8 15
-11 16 -11 7 0 -7 8 -13 21 -13 29 0 11 5 10 23 -6 26 -24 91 -63 103 -63 5 0
-11 12 -36 27 -25 14 -54 34 -66 44 -27 25 -30 24 -37 -10z" />
        <path d="M968 293 c7 -3 16 -2 19 1 4 3 -2 6 -13 5 -11 0 -14 -3 -6 -6z" />
        <path d="M1988 293 c7 -3 16 -2 19 1 4 3 -2 6 -13 5 -11 0 -14 -3 -6 -6z" />
        <path d="M2728 293 c7 -3 16 -2 19 1 4 3 -2 6 -13 5 -11 0 -14 -3 -6 -6z" />
        <path d="M3088 293 c7 -3 16 -2 19 1 4 3 -2 6 -13 5 -11 0 -14 -3 -6 -6z" />
        <path d="M320 280 c-9 -6 -10 -10 -3 -10 6 0 15 5 18 10 8 12 4 12 -15 0z" />
        <path d="M3121 286 c2 -2 15 -9 29 -15 24 -11 24 -11 6 3 -16 13 -49 24 -35
12z" />
        <path d="M1390 276 c0 -3 9 -10 20 -16 11 -6 20 -8 20 -6 0 3 -9 10 -20 16
-11 6 -20 8 -20 6z" />
        <path d="M218 263 c7 -3 16 -2 19 1 4 3 -2 6 -13 5 -11 0 -14 -3 -6 -6z" />
        <path d="M278 263 c7 -3 16 -2 19 1 4 3 -2 6 -13 5 -11 0 -14 -3 -6 -6z" />
        <path d="M1320 266 c0 -2 9 -6 20 -9 11 -3 18 -1 14 4 -5 9 -34 13 -34 5z" />
        <path d="M1978 263 c7 -3 16 -2 19 1 4 3 -2 6 -13 5 -11 0 -14 -3 -6 -6z" />
        <path d="M2028 263 c6 -2 18 -2 25 0 6 3 1 5 -13 5 -14 0 -19 -2 -12 -5z" />
        <path
            d="M2317 234 c-22 -45 -100 -82 -195 -94 l-67 -7 53 -2 c29 0 65 -8 80
-17 l27 -16 -24 19 -24 20 37 7 c20 4 41 4 48 0 6 -4 8 -3 5 3 -9 15 19 37 37
30 10 -4 13 -1 9 9 -6 17 9 18 40 4 22 -10 22 -10 0 6 -27 19 -31 39 -7 30 13
-5 14 -4 6 7 -18 22 -1 29 22 10 21 -18 21 -18 2 5 -25 29 -29 28 -49 -14z" />
        <path d="M3078 263 c7 -3 16 -2 19 1 4 3 -2 6 -13 5 -11 0 -14 -3 -6 -6z" />
        <path d="M3111 256 c10 -9 69 -36 69 -32 0 6 -55 36 -66 36 -4 0 -5 -2 -3 -4z" />
        <path d="M1178 233 c7 -3 16 -2 19 1 4 3 -2 6 -13 5 -11 0 -14 -3 -6 -6z" />
        <path d="M1273 233 c9 -2 23 -2 30 0 6 3 -1 5 -18 5 -16 0 -22 -2 -12 -5z" />
        <path
            d="M1480 205 c19 -19 36 -35 39 -35 3 0 -10 16 -29 35 -19 19 -36 35
-39 35 -3 0 10 -16 29 -35z" />
        <path
            d="M1535 200 c21 -22 41 -40 44 -40 3 0 -13 18 -34 40 -21 22 -41 40
-44 40 -3 0 13 -18 34 -40z" />
        <path d="M2928 233 c6 -2 18 -2 25 0 6 3 1 5 -13 5 -14 0 -19 -2 -12 -5z" />
        <path d="M3028 233 c6 -2 18 -2 25 0 6 3 1 5 -13 5 -14 0 -19 -2 -12 -5z" />
        <path d="M1213 213 c15 -2 37 -2 50 0 12 2 0 4 -28 4 -27 0 -38 -2 -22 -4z" />
        <path d="M1361 216 c2 -2 15 -9 29 -15 24 -11 24 -11 6 3 -16 13 -49 24 -35
12z" />
        <path d="M2973 213 c15 -2 37 -2 50 0 12 2 0 4 -28 4 -27 0 -38 -2 -22 -4z" />
        <path
            d="M3260 185 c19 -19 36 -35 39 -35 3 0 -10 16 -29 35 -19 19 -36 35
-39 35 -3 0 10 -16 29 -35z" />
        <path d="M1350 190 c8 -5 20 -10 25 -10 6 0 3 5 -5 10 -8 5 -19 10 -25 10 -5
0 -3 -5 5 -10z" />
        <path d="M3101 197 c17 -14 98 -54 94 -46 -7 10 -79 49 -91 49 -4 0 -5 -1 -3
-3z" />
        <path d="M978 183 c7 -3 16 -2 19 1 4 3 -2 6 -13 5 -11 0 -14 -3 -6 -6z" />
        <path d="M888 173 c6 -2 18 -2 25 0 6 3 1 5 -13 5 -14 0 -19 -2 -12 -5z" />
        <path d="M1390 177 c0 -2 19 -17 43 -32 23 -16 37 -22 30 -14 -12 15 -73 53
-73 46z" />
        <path d="M2384 166 c11 -9 24 -16 30 -16 12 0 7 5 -24 19 -24 11 -24 11 -6 -3z" />
        <path d="M2648 173 c6 -2 18 -2 25 0 6 3 1 5 -13 5 -14 0 -19 -2 -12 -5z" />
        <path d="M3038 173 c7 -3 16 -2 19 1 4 3 -2 6 -13 5 -11 0 -14 -3 -6 -6z" />
        <path d="M3324 172 c8 -13 66 -56 66 -49 0 3 -17 17 -37 33 -20 15 -33 23 -29
16z" />
        <path
            d="M1545 150 c10 -11 20 -20 23 -20 3 0 -3 9 -13 20 -10 11 -20 20 -23
20 -3 0 3 -9 13 -20z" />
        <path d="M1790 165 c0 -7 81 -47 86 -43 2 3 -17 14 -41 26 -25 12 -45 20 -45
17z" />
        <path d="M818 153 c7 -3 16 -2 19 1 4 3 -2 6 -13 5 -11 0 -14 -3 -6 -6z" />
        <path d="M1173 153 c15 -2 37 -2 50 0 12 2 0 4 -28 4 -27 0 -38 -2 -22 -4z" />
        <path d="M1590 156 c0 -2 8 -10 18 -17 15 -13 16 -12 3 4 -13 16 -21 21 -21
13z" />
        <path d="M2923 153 c15 -2 37 -2 50 0 12 2 0 4 -28 4 -27 0 -38 -2 -22 -4z" />
        <path d="M77 139 c7 -7 15 -10 18 -7 3 3 -2 9 -12 12 -14 6 -15 5 -6 -5z" />
        <path d="M248 143 c7 -3 16 -2 19 1 4 3 -2 6 -13 5 -11 0 -14 -3 -6 -6z" />
        <path d="M680 140 c8 -5 20 -10 25 -10 6 0 3 5 -5 10 -8 5 -19 10 -25 10 -5 0
-3 -5 5 -10z" />
        <path d="M1088 143 c6 -2 18 -2 25 0 6 3 1 5 -13 5 -14 0 -19 -2 -12 -5z" />
        <path d="M1784 136 c11 -9 24 -16 30 -16 12 0 7 5 -24 19 -24 11 -24 11 -6 -3z" />
        <path d="M2008 143 c7 -3 16 -2 19 1 4 3 -2 6 -13 5 -11 0 -14 -3 -6 -6z" />
        <path d="M2848 143 c7 -3 16 -2 19 1 4 3 -2 6 -13 5 -11 0 -14 -3 -6 -6z" />
        <path d="M2460 130 c8 -5 22 -9 30 -9 10 0 8 3 -5 9 -27 12 -43 12 -25 0z" />
        <path d="M735 120 c19 -8 73 -14 64 -6 -2 2 -22 6 -44 9 -28 5 -34 4 -20 -3z" />
        <path d="M1203 123 c15 -2 37 -2 50 0 12 2 0 4 -28 4 -27 0 -38 -2 -22 -4z" />
        <path d="M2963 123 c15 -2 37 -2 50 0 12 2 0 4 -28 4 -27 0 -38 -2 -22 -4z" />
        <path d="M430 116 c0 -3 9 -10 20 -16 11 -6 20 -8 20 -6 0 3 -9 10 -20 16 -11
6 -20 8 -20 6z" />
        <path d="M938 113 c7 -3 16 -2 19 1 4 3 -2 6 -13 5 -11 0 -14 -3 -6 -6z" />
        <path d="M1118 113 c7 -3 16 -2 19 1 4 3 -2 6 -13 5 -11 0 -14 -3 -6 -6z" />
        <path d="M2518 113 c6 -2 18 -2 25 0 6 3 1 5 -13 5 -14 0 -19 -2 -12 -5z" />
        <path d="M2878 113 c7 -3 16 -2 19 1 4 3 -2 6 -13 5 -11 0 -14 -3 -6 -6z" />
    </g>
</svg>